<?xml version="1.0" encoding="UTF-8" standalone="no"?>
<!-- Created with Inkscape (http://www.inkscape.org/) -->

<svg
   xmlns:dc="http://purl.org/dc/elements/1.1/"
   xmlns:cc="http://creativecommons.org/ns#"
   xmlns:rdf="http://www.w3.org/1999/02/22-rdf-syntax-ns#"
   xmlns:svg="http://www.w3.org/2000/svg"
   xmlns="http://www.w3.org/2000/svg"
   xmlns:sodipodi="http://sodipodi.sourceforge.net/DTD/sodipodi-0.dtd"
   xmlns:inkscape="http://www.inkscape.org/namespaces/inkscape"
   width="60mm"
   height="50mm"
   viewBox="0 0 60 50"
   version="1.1"
   id="svg4804"
   inkscape:version="0.92.3 (2405546, 2018-03-11)"
   sodipodi:docname="prasatko-vykrajovatko-vnitrni.svg">
  <defs
     id="defs4798" />
  <sodipodi:namedview
     id="base"
     pagecolor="#ffffff"
     bordercolor="#666666"
     borderopacity="1.0"
     inkscape:pageopacity="0.0"
     inkscape:pageshadow="2"
     inkscape:zoom="1.979899"
     inkscape:cx="4.2552568"
     inkscape:cy="66.392673"
     inkscape:document-units="mm"
     inkscape:current-layer="layer1"
     showgrid="false"
     inkscape:window-width="1920"
     inkscape:window-height="1027"
     inkscape:window-x="-8"
     inkscape:window-y="-8"
     inkscape:window-maximized="1" />
  <metadata
     id="metadata4801">
    <rdf:RDF>
      <cc:Work
         rdf:about="">
        <dc:format>image/svg+xml</dc:format>
        <dc:type
           rdf:resource="http://purl.org/dc/dcmitype/StillImage" />
        <dc:title />
      </cc:Work>
    </rdf:RDF>
  </metadata>
  <g
     inkscape:label="Layer 1"
     inkscape:groupmode="layer"
     id="layer1"
     transform="translate(0,-247)">
    <path
       style="color:#000000;font-style:normal;font-variant:normal;font-weight:normal;font-stretch:normal;font-size:medium;line-height:normal;font-family:sans-serif;font-variant-ligatures:normal;font-variant-position:normal;font-variant-caps:normal;font-variant-numeric:normal;font-variant-alternates:normal;font-feature-settings:normal;text-indent:0;text-align:start;text-decoration:none;text-decoration-line:none;text-decoration-style:solid;text-decoration-color:#000000;letter-spacing:normal;word-spacing:normal;text-transform:none;writing-mode:lr-tb;direction:ltr;text-orientation:mixed;dominant-baseline:auto;baseline-shift:baseline;text-anchor:start;white-space:normal;shape-padding:0;clip-rule:nonzero;display:inline;overflow:visible;visibility:visible;opacity:1;isolation:auto;mix-blend-mode:normal;color-interpolation:sRGB;color-interpolation-filters:linearRGB;solid-color:#000000;solid-opacity:1;vector-effect:none;fill:#000000;fill-opacity:1;fill-rule:nonzero;stroke:none;stroke-width:4.53543329;stroke-linecap:round;stroke-linejoin:round;stroke-miterlimit:4;stroke-dasharray:none;stroke-dashoffset:0;stroke-opacity:1;color-rendering:auto;image-rendering:auto;shape-rendering:auto;text-rendering:auto;enable-background:accumulate"
       d="m 40.230469,23.521484 c -3.612536,0.01609 -6.749797,0.61588 -9.056641,1.894532 -0.768948,0.426104 -1.474771,0.943298 -2.029297,1.689453 -0.554526,0.746116 -0.914854,1.796805 -0.820312,2.828125 0.189086,2.062677 1.656939,3.444132 3.632812,4.666015 5.689169,3.518136 7.118628,7.094331 7.447266,9.832032 0.309959,2.581946 -0.41584,4.090421 -0.501953,4.28125 C 26.961372,56.635196 18.806032,66.166973 14.875,76.830078 c -4.03414,10.942828 -3.722137,22.929853 0.701172,35.072262 4.72375,12.96718 15.058875,22.98609 35.808594,30.11719 -0.8071,1.62391 -2.501178,4.71298 -3.771485,10.13672 -0.781394,3.3363 -1.222247,6.92846 -0.560547,10.3125 0.661697,3.384 2.66723,6.62752 6.310547,8.30469 3.917016,1.80317 8.30918,0.69878 12.410157,-1.41016 4.100972,-2.10898 8.151881,-5.33485 11.810546,-8.70312 1.383848,-1.27401 2.648151,-2.51941 3.833985,-3.72461 1.450799,1.82607 3.726581,4.49259 6.722656,7.17187 5.049128,4.51529 12.030345,9.0654 19.626955,7.53711 3.76222,-0.75692 6.3595,-2.94717 7.46289,-5.625 1.10339,-2.67783 0.91425,-5.56729 0.36914,-8.19531 -0.46111,-2.22297 -1.21657,-4.30339 -1.9375,-5.9961 6.6477,0.79811 13.40762,1.32858 19.7168,1.53711 -1.07091,1.42141 -2.37135,3.40131 -3.27344,5.64063 -0.89517,2.22217 -1.45895,4.8245 -0.64844,7.44141 0.81051,2.6169 3.08418,4.88893 6.6582,6.22265 6.26436,2.33768 13.0195,-0.81581 18.20313,-4.07422 4.60707,-2.89599 7.97644,-6.01733 8.70508,-6.70898 1.78898,1.51027 3.75393,3.08507 5.85937,4.64062 4.57329,3.37883 9.54619,6.47533 14.41602,8.12891 4.86982,1.65358 10.0133,1.8434 13.83398,-1.35937 3.50308,-2.93655 4.97555,-6.80293 4.96875,-10.55665 -0.007,-3.75371 -1.29264,-7.41535 -2.88672,-10.76953 -1.59407,-3.35418 -3.53587,-6.41811 -5.02734,-8.85156 -0.74573,-1.21674 -1.38221,-2.2788 -1.78516,-3.07031 -0.16539,-0.32504 -0.12393,-0.21691 -0.19336,-0.42774 1.53412,-1.27736 6.03702,-5.26059 9.92969,-13.49414 4.60583,-9.74199 7.38018,-24.51223 0.56836,-44.083981 -1.27526,-3.664075 -2.86804,-6.995535 -4.73047,-10.033203 1.19475,-0.246383 2.74734,-0.643019 4.36133,-1.291016 2.48501,-0.997757 4.8843,-3.091291 6.41406,-5.882812 2.15835,-0.505663 4.28612,-1.651034 6.05274,-3.587891 1.78899,-1.961462 2.6092,-4.243354 2.6582,-6.349609 0.049,-2.106256 -0.58638,-3.997424 -1.38086,-5.564454 -1.58896,-3.134097 -3.95508,-5.220703 -3.95508,-5.220703 -0.45051,-0.415642 -1.05007,-0.631232 -1.66211,-0.597656 -2.0338,0.107054 -2.90669,2.632611 -1.37304,3.972656 0,0 1.81678,1.670607 2.94531,3.896485 0.56426,1.112957 0.91823,2.30729 0.89258,3.410156 -0.0257,1.102828 -0.34705,2.160239 -1.47461,3.396484 -0.49654,0.544403 -1.09079,0.626024 -1.63867,0.97461 -0.44487,-3.094073 -1.76938,-5.738444 -4.03907,-6.931641 -1.47151,-0.773556 -3.22446,-1.033376 -4.87109,-0.480469 -1.64663,0.552907 -3.03402,1.94305 -3.75781,3.773438 -0.79517,2.010784 -0.39556,4.233438 0.70898,5.808594 1.10455,1.575118 2.76949,2.644256 4.6582,3.255859 0.3934,0.12737 0.88238,-0.03501 1.29883,0.05078 -0.8791,0.745399 -1.94912,1.37973 -3.16797,1.869141 -2.64837,1.063332 -5.27734,1.335937 -5.27734,1.335937 -0.076,0.0072 -0.15165,0.01833 -0.22656,0.0332 -7.26796,-9.481788 -17.58004,-15.602981 -29.47852,-19.521484 -16.2739,-5.359452 -35.6114,-6.841217 -55.16601,-7.841797 0.64541,-1.652737 1.81187,-3.559996 4.07617,-6.183594 1.14165,-1.322796 1.85017,-3.23338 1.0918,-4.902343 -0.75838,-1.668964 -2.27258,-2.332523 -3.79297,-2.730469 -3.04079,-0.795893 -7.12305,-0.576761 -11.75977,0.507812 -7.087718,1.657887 -15.39871,5.529323 -21.035155,12.38086 -0.11788,-0.02173 -0.23756,-0.03219 -0.357422,-0.03125 L 67.779297,39.65234 C 66.132839,35.128748 63.182069,31.63624 59.681641,29.166012 54.903758,25.794257 49.173823,24.179428 43.988281,23.695308 42.691896,23.574279 41.434647,23.516118 40.230469,23.52148 Z m 0.03516,4.578125 c 1.052555,-0.02451 2.165164,0.0071 3.302734,0.113282 4.550283,0.424819 9.581094,1.891248 13.501953,4.658203 3.92086,2.766916 6.785618,6.702157 7.447266,12.646484 0.291633,3.059847 4.898079,2.547133 4.509766,-0.501953 -0.06038,-0.54246 -0.141281,-1.071305 -0.234375,-1.591797 l 7.660156,-0.06445 c -0.635682,1.089134 -1.220971,2.22334 -1.71875,3.433594 -1.193956,2.812764 3.058427,4.565609 4.193359,1.728515 3.938616,-9.576 13.951385,-14.962651 22.218742,-16.896484 4.13369,-0.966917 7.85544,-0.990981 9.58204,-0.539062 0.21336,0.05586 0.37785,0.116641 0.50586,0.173828 0.30022,-0.362361 0.17365,-0.245766 0.30664,0.04687 0.11545,0.254068 0.0833,0.127325 -0.30664,-0.04687 -0.046,0.05556 -0.0186,0.02067 -0.0918,0.105468 -3.5408,4.102602 -5.10705,7.300869 -5.68555,10.298828 -0.5785,2.997922 -0.24901,5.467532 -0.44922,8.488282 -0.24414,3.053689 4.36061,3.361732 4.52539,0.302734 0.14515,-2.190092 0.10101,-3.904869 0.14844,-5.435547 19.67786,1.001376 38.92234,2.498988 54.56445,7.650391 16.18696,5.330797 28.41506,14.300333 34.17969,30.863281 6.45796,18.555054 3.77535,31.860884 -0.38476,40.660154 -4.16013,8.79923 -9.72852,12.92578 -9.72852,12.92578 -0.55457,0.41106 -0.89173,1.05232 -0.91602,1.74219 -0.046,1.38784 0.44401,2.2133 0.9668,3.24023 0.52279,1.0269 1.19898,2.15182 1.95703,3.38867 1.51611,2.47367 3.35725,5.40048 4.79688,8.42969 1.43963,3.02922 2.43849,6.14122 2.44336,8.82813 0.005,2.68686 -0.78829,4.93006 -3.34375,7.07226 -2.23784,1.87593 -5.35072,1.94054 -9.45508,0.54688 -4.10436,-1.39367 -8.82056,-4.26281 -13.1836,-7.48633 -8.72605,-6.44697 -16.05664,-14.20898 -16.05664,-14.20898 -0.5297,-0.56082 -1.30816,-0.81393 -2.0664,-0.67188 -13.23068,2.4717 -46.08327,-0.28122 -64.031252,-5.04297 -0.878433,-0.23236 -1.810756,0.082 -2.36914,0.79883 0,0 -2.681582,3.42031 -6.613282,7.63672 -0.413164,0.23096 -0.743709,0.58541 -0.945312,1.01367 -1.525704,1.60029 -3.20584,3.28044 -4.982422,4.91602 -3.485344,3.2087 -7.323345,6.21445 -10.814453,8.00976 -3.491112,1.79531 -6.396982,2.26159 -8.4375,1.32227 -2.314247,-1.06534 -3.2934,-2.68159 -3.757813,-5.05664 -0.464413,-2.3751 -0.172456,-5.43697 0.523438,-8.40821 1.391799,-5.94251 4.238281,-11.39062 4.238281,-11.39062 0.658866,-1.24819 0.02981,-2.78858 -1.314453,-3.21875 C 33.317089,131.66014 24.293041,122.58676 19.835938,110.35156 15.714716,99.038378 15.487726,88.268081 19.126953,78.396484 22.76618,68.524888 30.329231,59.472726 42.158203,51.84375 c 0.354863,-0.230084 0.638321,-0.554809 0.818359,-0.9375 0,0 1.410798,-3.022075 0.931641,-7.013672 -0.479161,-3.991597 -2.938458,-9.054416 -9.568359,-13.154297 -1.261992,-0.780397 -1.318978,-1.166556 -1.335938,-1.091797 0.09337,-0.08239 0.13015,-0.137499 0.361328,-0.265625 1.124692,-0.623253 3.742725,-1.207712 6.900391,-1.28125 z m 5.80273,36.851563 c -0.922318,-0.05067 -1.61848,0.401614 -2.027343,0.755859 -0.545148,0.472555 -0.887893,0.991907 -1.220704,1.574219 -0.665627,1.164661 -1.215323,2.622296 -1.646484,4.318359 -0.431157,1.696026 -0.657705,3.298119 -0.65625,4.746094 7.22e-4,0.724006 0.03967,1.398841 0.261719,2.197266 0.222085,0.798425 0.771799,2.127735 2.195312,2.732422 1.423533,0.604611 2.476337,-0.04326 3.021485,-0.515625 0.545159,-0.472555 0.893737,-0.982104 1.226562,-1.564454 0.665617,-1.164623 1.211417,-2.632062 1.642578,-4.328124 0.431158,-1.696063 0.663576,-3.288316 0.66211,-4.736329 -7.3e-4,-0.723968 -0.04549,-1.408606 -0.267578,-2.207031 -0.222048,-0.798387 -0.771788,-2.127773 -2.195313,-2.732422 -0.35588,-0.151171 -0.688654,-0.223344 -0.996094,-0.240234 z m 119.294921,0.08789 c -2.57755,0.06731 -5.22133,1.004765 -7.33984,2.962891 -2.42116,2.237821 -4.06607,5.729564 -4.42774,10.341797 -1.06324,13.560227 4.37696,22.91406 4.37696,22.91406 0.35859,0.6134 0.98392,1.02331 1.68945,1.10742 0,0 15.41319,2.19834 24.75195,-6.562496 6.01264,-5.640529 7.45202,-12.789167 4.95313,-17.8125 -1.24945,-2.511685 -3.57971,-4.434384 -6.48828,-5.019531 -1.98713,-0.399761 -4.21465,0.04009 -6.50391,0.871094 -0.34348,-1.961386 -1.01957,-3.77842 -2.25195,-5.138672 -1.96943,-2.17372 -4.75127,-3.435447 -7.66211,-3.638672 -0.36386,-0.02542 -0.72944,-0.03501 -1.09766,-0.02539 z m -92.619139,3.386719 c -0.922321,-0.05066 -1.61653,0.403539 -2.025391,0.757813 -0.545148,0.472516 -0.893752,0.982141 -1.226562,1.564453 -0.665632,1.164661 -1.21141,2.632062 -1.642579,4.328125 -0.431161,1.696063 -0.665529,3.294175 -0.664062,4.742187 7.29e-4,0.724007 0.04745,1.400832 0.269531,2.199219 0.222047,0.798388 0.773744,2.127735 2.197266,2.732422 1.423525,0.604649 2.476336,-0.04326 3.021484,-0.515625 0.545148,-0.472517 0.88594,-0.984094 1.21875,-1.566406 0.665628,-1.164662 1.211421,-2.632062 1.642578,-4.328125 0.431169,-1.696101 0.665533,-3.29609 0.664063,-4.744141 -7.3e-4,-0.723968 -0.04162,-1.396925 -0.263672,-2.195312 -0.222047,-0.798426 -0.771791,-2.127773 -2.195313,-2.732422 -0.355881,-0.151162 -0.688653,-0.2253 -0.996093,-0.242188 z m 92.732419,1.146485 c 0.22243,-0.0048 0.44497,0.002 0.66797,0.01758 1.78399,0.124724 3.50011,0.933423 4.61328,2.162109 1.11318,1.228649 1.71977,2.801635 1.35157,4.982422 -0.31767,1.907098 1.74365,3.311684 3.40234,2.318359 2.74073,-1.647874 4.92073,-1.951276 6.47461,-1.638672 1.55388,0.312567 2.62431,1.198551 3.32031,2.597657 1.392,2.798249 0.89858,7.88848 -3.99219,12.476562 -6.56947,6.162936 -17.9973,5.480229 -19.88672,5.34375 -0.77082,-1.442645 -4.16869,-8.163414 -3.30859,-19.132812 0.29352,-3.743093 1.52569,-6.01355 2.99024,-7.367188 1.28147,-1.184466 2.81019,-1.726497 4.36718,-1.759765 z M 45.404297,86.814453 c -6.165139,0.01143 -11.090414,1.007728 -14.851563,2.882813 -4.298455,2.142992 -7.052642,5.614812 -7.75,9.648437 -0.659521,3.814597 0.01477,8.443917 3.476563,12.519527 3.461808,4.07558 9.465949,7.56175 19.251953,10.02539 9.836375,2.47631 18.307606,2.28502 24.626953,-0.25195 6.319348,-2.53697 10.443052,-7.77082 10.628906,-14.30664 C 80.979941,100.55277 76.11813,95.410801 69.839844,92.15625 63.561553,88.901699 55.60726,87.183472 48.123047,86.871094 v -0.002 c -0.931612,-0.03888 -1.838016,-0.05632 -2.71875,-0.05469 z m 0.01758,4.539063 c 0.810251,-0.0026 1.64818,0.01261 2.515625,0.04883 6.908228,0.288378 14.363124,1.958346 19.8125,4.783203 5.44938,2.824857 8.635886,6.450071 8.505859,11.021481 -0.136932,4.81493 -2.724076,8.18337 -7.789062,10.2168 -5.064987,2.03338 -12.655896,2.37543 -21.828125,0.0664 -9.222608,-2.32183 -14.307228,-5.50497 -16.904297,-8.5625 -2.597069,-3.05752 -2.94776,-6.0213 -2.464844,-8.81445 0.445043,-2.574195 1.991274,-4.702603 5.306641,-6.355466 2.900945,-1.446255 7.173943,-2.385981 12.845703,-2.404296 z m -3.375,6.632812 c -2.663618,0 -4.642578,2.317202 -4.642578,4.851562 0,2.53436 1.97896,4.85742 4.642578,4.85742 2.663618,0 4.636719,-2.32306 4.636719,-4.85742 0,-2.53436 -1.973101,-4.851562 -4.636719,-4.851562 z m 16.853516,3.175782 c -2.663619,4e-5 -4.642578,2.32306 -4.642579,4.85742 0,2.53436 1.97896,4.84961 4.642579,4.84961 2.663622,0 4.634765,-2.31525 4.634765,-4.84961 0,-2.53436 -1.971143,-4.85742 -4.634765,-4.85742 z m 30.789062,46.41016 c 5.450232,1.38124 11.882575,2.58416 18.617185,3.54492 0.74741,1.44494 2.21151,4.51692 2.85742,7.63086 0.44155,2.1287 0.44136,4.16843 -0.125,5.54297 -0.56636,1.37453 -1.50026,2.3664 -4.16406,2.90234 -5.25549,1.05728 -11.124865,-2.36038 -15.716795,-6.4668 -3.049431,-2.72701 -5.331412,-5.48758 -6.591797,-7.11133 2.837592,-3.12092 4.673592,-5.47252 5.123047,-6.04296 z m 63.396485,4.98242 c 0.42639,0.44868 2.85163,3.00998 6.51172,6.32812 -1.14568,1.04707 -4.04262,3.57818 -7.69336,5.87305 -4.71556,2.96417 -10.38424,5.08722 -14.20313,3.66211 -2.68647,-1.00252 -3.54878,-2.13355 -3.91211,-3.30664 -0.36332,-1.17309 -0.14457,-2.74514 0.52539,-4.40821 1.3399,-3.32609 4.23633,-6.47265 4.23633,-6.47265 0.21367,-0.21818 0.38108,-0.47727 0.49219,-0.76172 5.34913,-0.002 10.17997,-0.28545 14.04297,-0.91406 z"
       transform="matrix(0.26458333,0,0,0.26458333,0,247)"
       id="path4534-7-8"
       inkscape:connector-curvature="0"
       sodipodi:nodetypes="cccsccccscccccscccscccccssccsccccccssccccscccccccccscccccccscccssccccscccccccccccsccccccccccscccccccccccccccccsccsccssccscccccsccccccccccccscccccccccccccccccccccccccccccccccccccccccccccscsccccccscccccsccssssscsssccccccscccccscsccc" />
  </g>
</svg>
