<?xml version="1.0" encoding="UTF-8" standalone="no"?>
<!-- Created with Inkscape (http://www.inkscape.org/) -->

<svg
   xmlns:dc="http://purl.org/dc/elements/1.1/"
   xmlns:cc="http://creativecommons.org/ns#"
   xmlns:rdf="http://www.w3.org/1999/02/22-rdf-syntax-ns#"
   xmlns:svg="http://www.w3.org/2000/svg"
   xmlns="http://www.w3.org/2000/svg"
   xmlns:sodipodi="http://sodipodi.sourceforge.net/DTD/sodipodi-0.dtd"
   xmlns:inkscape="http://www.inkscape.org/namespaces/inkscape"
   width="70mm"
   height="41mm"
   viewBox="0 0 70 41"
   version="1.1"
   id="svg8"
   inkscape:version="0.92.3 (2405546, 2018-03-11)"
   sodipodi:docname="cteci.svg">
  <defs
     id="defs2" />
  <sodipodi:namedview
     id="base"
     pagecolor="#ffffff"
     bordercolor="#666666"
     borderopacity="1.0"
     inkscape:pageopacity="0.0"
     inkscape:pageshadow="2"
     inkscape:zoom="3.959798"
     inkscape:cx="156.67983"
     inkscape:cy="56.38813"
     inkscape:document-units="mm"
     inkscape:current-layer="layer1"
     showgrid="false"
     inkscape:window-width="1920"
     inkscape:window-height="1027"
     inkscape:window-x="-8"
     inkscape:window-y="-8"
     inkscape:window-maximized="1" />
  <metadata
     id="metadata5">
    <rdf:RDF>
      <cc:Work
         rdf:about="">
        <dc:format>image/svg+xml</dc:format>
        <dc:type
           rdf:resource="http://purl.org/dc/dcmitype/StillImage" />
        <dc:title />
      </cc:Work>
    </rdf:RDF>
  </metadata>
  <g
     inkscape:label="Layer 1"
     inkscape:groupmode="layer"
     id="layer1"
     transform="translate(0,-256)">
    <path
       style="color:#000000;font-style:normal;font-variant:normal;font-weight:normal;font-stretch:normal;font-size:medium;line-height:normal;font-family:sans-serif;font-variant-ligatures:normal;font-variant-position:normal;font-variant-caps:normal;font-variant-numeric:normal;font-variant-alternates:normal;font-feature-settings:normal;text-indent:0;text-align:start;text-decoration:none;text-decoration-line:none;text-decoration-style:solid;text-decoration-color:#000000;letter-spacing:normal;word-spacing:normal;text-transform:none;writing-mode:lr-tb;direction:ltr;text-orientation:mixed;dominant-baseline:auto;baseline-shift:baseline;text-anchor:start;white-space:normal;shape-padding:0;clip-rule:nonzero;display:inline;overflow:visible;visibility:visible;opacity:1;isolation:auto;mix-blend-mode:normal;color-interpolation:sRGB;color-interpolation-filters:linearRGB;solid-color:#000000;solid-opacity:1;vector-effect:none;fill:#000000;fill-opacity:1;fill-rule:nonzero;stroke:none;stroke-width:1.20000005;stroke-linecap:round;stroke-linejoin:miter;stroke-miterlimit:4;stroke-dasharray:none;stroke-dashoffset:0;stroke-opacity:1;color-rendering:auto;image-rendering:auto;shape-rendering:auto;text-rendering:auto;enable-background:accumulate"
       d="m 49.831333,259.5222 c -0.534096,0.01 -1.138423,0.10435 -1.792656,0.25684 -1.046771,0.24397 -2.187797,0.65907 -3.176032,1.25987 -0.872021,0.53013 -1.642176,1.21011 -2.056206,2.08927 -0.84019,0.10014 -1.780098,0.27837 -2.487187,0.44029 -1.002456,-1.0256 -2.032603,-1.56187 -3.054077,-1.80506 -1.392105,-0.33143 -2.710921,-0.16714 -3.96875,-0.19741 -0.378135,-0.009 -0.678281,-0.009 -0.99839,0.21085 -0.160051,0.10989 -0.305593,0.31383 -0.347265,0.51986 -0.02699,0.13346 -0.01855,0.25263 0.0036,0.35967 -3.005209,0.94002 -4.81275,0.27927 -6.898286,-0.37362 -1.114708,-0.34897 -2.305068,-0.69066 -3.703132,-0.74414 -1.398064,-0.0535 -3.004032,0.17953 -4.947502,0.9803 -7.6561199,3.15449 -11.5445799,8.39444 -11.7202149,14.81098 -0.08626,3.15152 0.317552,4.80295 0.362769,6.57789 0.04522,1.77495 -0.235534,3.77466 -1.718242,7.8419 -0.115766,0.3184 0.05484,0.66945 0.376721,0.77515 0,0 4.469665,1.45676 11.3517619,0.97462 3.407542,-0.23871 4.405381,-0.45857 5.060156,-0.65784 0.654775,-0.19928 0.813726,-0.32759 2.947625,-0.47078 2.705071,-0.1815 6.254139,0.40248 9.71672,1.00976 3.462578,0.60728 6.82857,1.24133 9.366869,1.07435 3.454781,-0.22728 9.134843,-1.59421 9.134843,-1.59421 0.384212,-0.0921 0.576151,-0.52386 0.387056,-0.87075 0.366379,-0.003 0.779069,-0.0172 1.257806,-0.0491 1.75678,-0.11695 3.658997,-0.58747 5.169709,-1.28881 0.506527,-0.23515 0.963957,-0.49897 1.364258,-0.79117 l -0.186552,2.22261 c -0.03487,0.42012 0.362968,0.74428 0.767395,0.62528 l 6.801135,-2.00401 c 0.228711,-0.0673 0.395857,-0.2637 0.425815,-0.50023 l 1.195274,-9.42733 c 2.01e-4,-0.003 2.65e-4,-0.006 5.29e-4,-0.009 0.0019,-0.0151 0.003,-0.0303 0.0036,-0.0455 2.38e-4,-0.005 5.29e-4,-0.01 5.29e-4,-0.015 1.72e-4,-0.0167 -2.62e-4,-0.0334 -0.0016,-0.0501 -1.72e-4,-0.002 -2.64e-4,-0.003 -5.29e-4,-0.005 -0.0013,-0.0182 -0.0037,-0.0363 -0.0067,-0.0543 -2.62e-4,-0.002 -7.94e-4,-0.003 -0.0011,-0.005 -0.0033,-0.0181 -0.0075,-0.036 -0.01241,-0.0537 -5.29e-4,-10e-4 -0.0011,-0.003 -0.0016,-0.004 -0.005,-0.0178 -0.0109,-0.0354 -0.01757,-0.0527 -2.65e-4,-7.9e-4 -7.94e-4,-0.002 -0.0011,-0.003 -0.0073,-0.0192 -0.01558,-0.038 -0.02482,-0.0563 l -3.777665,-7.23419 c -0.104572,-0.20044 -0.312923,-0.32509 -0.538986,-0.32246 -0.2843,0.003 -0.527248,0.2057 -0.581877,0.48472 l -0.7152,3.64319 -1.316199,-0.7798 c -0.08651,-0.0516 -0.184608,-0.0805 -0.285255,-0.0842 -0.320379,-0.0112 -0.593,0.23136 -0.619083,0.55087 l -0.39274,4.6762 c -0.515493,-0.0184 -2.200023,-0.0208 -4.584218,0.62322 0.11566,-0.28121 0.227981,-0.55677 0.330729,-0.79943 0.01683,-0.039 0.02949,-0.0797 0.03772,-0.12144 0.641964,-0.33234 1.185672,-0.71675 1.624187,-1.14825 1.172676,-1.15391 1.510527,-2.75382 0.767395,-4.19303 -0.451446,-0.87433 -1.21779,-1.45021 -2.138887,-1.80247 -0.1011,-0.61523 -0.244181,-1.21973 -0.420126,-1.81178 0.03141,-0.1779 0.05116,-0.35957 0.05116,-0.54622 0,-1.09207 -0.562203,-2.05473 -1.411801,-2.63653 -1.070981,-1.86026 -2.524869,-3.42847 -4.220414,-4.50257 -0.02299,-0.4827 -0.05964,-0.90715 0.0057,-1.29243 0.07866,-0.464 0.279066,-0.94381 0.933278,-1.60351 0.317441,-0.30693 0.594156,-0.67788 0.472839,-1.16789 -0.06066,-0.24501 -0.231973,-0.43652 -0.398425,-0.54726 -0.166455,-0.11073 -0.336603,-0.16649 -0.513665,-0.2067 -0.265591,-0.0603 -0.560626,-0.085 -0.881084,-0.0791 z m 0.06511,1.24282 c 0.132755,0.003 0.248565,0.0117 0.345196,0.0238 -0.707382,0.74978 -1.094745,1.4737 -1.207161,2.13682 -0.118663,0.69999 -0.02096,1.29208 -0.0098,1.81436 0.0037,0.16717 0.07694,0.32523 0.202057,0.43615 0.04484,0.0543 0.09889,0.10033 0.159679,0.13591 1.217001,0.73286 2.319287,1.77988 3.230295,3.0303 -0.02032,-2.6e-4 -0.04005,-0.003 -0.06046,-0.003 -1.406122,0 -2.617409,0.8802 -3.081983,2.11254 -0.594968,-0.57046 -1.4073,-0.92294 -2.297017,-0.92294 -1.444038,0 -2.684579,0.92749 -3.119705,2.21226 -0.02659,-0.0102 -0.05388,-0.0185 -0.08165,-0.0248 l -3.701066,-1.01183 c -0.463658,-0.15709 -0.903147,-0.16847 -1.271241,-0.0367 -0.379526,0.13587 -0.644271,0.40442 -0.808736,0.66198 -0.328927,0.51511 -0.355534,1.05678 -0.355534,1.05678 -0.09735,0.8228 1.155626,0.92681 1.195277,0.0992 0,0 0.04569,-0.31159 0.172082,-0.50953 0.0632,-0.099 0.121457,-0.15135 0.201023,-0.17984 0.07956,-0.0285 0.21863,-0.0507 0.507979,0.0527 0.01413,0.005 0.02842,0.01 0.04289,0.0139 l 3.701066,1.00976 c 0.07676,0.0251 0.157784,0.0344 0.238228,0.0274 0.05939,1.22742 0.824193,2.2716 1.90014,2.76314 -0.42545,0.29801 -0.780447,0.6147 -1.066083,0.94981 -0.75161,0.88182 -0.986359,1.95326 -0.65836,2.9099 0.308128,0.89863 1.015767,1.8243 2.279451,2.37299 1.263682,0.54868 3.047619,0.7441 5.585706,0.36742 0.909532,-0.13498 1.737659,-0.32726 2.482017,-0.56948 -0.512773,1.29027 -1.084281,2.73375 -1.913578,3.79409 -0.608219,-0.0149 -1.522865,0.0923 -1.902211,-0.0217 -0.772623,-0.24123 -1.123318,0.92565 -0.345713,1.15032 1.656879,0.49794 4.068649,0.15721 6.119006,0.11162 1.025181,-0.0228 1.948111,0.0265 2.525429,0.20309 0.288655,0.0883 0.478679,0.20394 0.583941,0.31419 0.10206,0.10689 0.152262,0.20638 0.160713,0.41238 l -0.01497,0.17725 c -0.0431,0.20558 -0.179634,0.44462 -0.457851,0.7152 -0.35342,0.34372 -0.910561,0.69996 -1.582333,1.01183 -1.343546,0.62372 -3.145319,1.07501 -4.742349,1.18132 -1.639023,0.10911 -2.472436,5.3e-4 -2.827732,-0.0977 -0.121507,-0.0336 -0.160176,-0.0538 -0.177252,-0.0641 -0.0087,-0.007 -0.01812,-0.0141 -0.02687,-0.0207 -0.06242,-0.0788 -0.143624,-0.14062 -0.236162,-0.17984 -0.970663,-0.73698 -2.208916,-1.70751 -3.515031,-2.81895 -2.83907,-2.41591 -5.922606,-5.4979 -6.86883,-7.72873 -1.873438,-4.41683 -2.805933,-7.10322 -2.952276,-12.00753 0.355224,-0.0483 0.589158,-0.39518 0.500745,-0.74259 -0.167587,-0.7393 -0.633974,-1.38461 -1.158068,-1.99988 -0.524095,-0.61528 -1.124223,-1.19169 -1.607653,-1.67949 -0.305642,-0.3084 -0.390734,-0.44037 -0.541055,-0.63097 1.291849,0.0177 2.469534,-0.0979 3.545004,0.15814 0.88692,0.21115 1.750618,0.64678 2.667021,1.67018 0.01434,0.0179 0.0297,0.035 0.04599,0.0512 0.233794,0.26564 0.470977,0.5682 0.713134,0.91725 0.451128,0.68228 1.466773,-0.022 0.985986,-0.68368 -0.06627,-0.0955 -0.132826,-0.18658 -0.199469,-0.27698 0.639019,-0.12882 1.35864,-0.25207 1.948717,-0.31368 0.290684,0.0366 0.565277,-0.14213 0.649573,-0.42271 0.222753,-0.66145 0.844812,-1.29527 1.689301,-1.80867 0.844489,-0.5134 1.887733,-0.89852 2.826184,-1.11725 0.636206,-0.14828 1.186135,-0.19054 1.584402,-0.1819 z m -29.055077,1.93993 c 1.437606,-0.0254 2.615264,0.33415 3.85558,0.72244 2.120876,0.66395 4.442923,1.42583 7.897194,0.27699 0.163822,0.17414 0.341826,0.34885 0.536401,0.54518 0.498252,0.50276 1.074515,1.06146 1.544608,1.61334 0.127034,0.14914 0.242604,0.2975 0.348816,0.44338 -0.0074,6.04406 0.998291,9.1091 3.07113,13.99605 1.142944,2.69461 4.3078,5.71643 7.195426,8.17366 1.640377,1.39589 2.793042,2.26733 3.602365,2.85667 0.04487,0.0596 0.09837,0.11805 0.165365,0.17105 0.08958,0.0709 0.199697,0.13293 0.331245,0.18914 0.126828,0.0906 0.272627,0.1953 0.373621,0.26768 -1.521434,0.34375 -5.084784,1.12352 -7.69152,1.29501 -2.261171,0.14875 -5.613717,-0.44848 -9.082132,-1.05678 -3.468416,-0.6083 -7.062159,-1.22262 -10.003526,-1.02526 -2.186612,0.14672 -2.642386,0.34451 -3.216857,0.51935 -0.574472,0.17484 -1.421617,0.375 -4.795057,0.61133 -6.0323199,0.42261 -9.6012829,-0.58154 -10.3244299,-0.79685 1.269477,-3.64014 1.643776,-5.82716 1.597835,-7.63054 -0.04917,-1.92998 -0.446411,-3.47694 -0.363285,-6.51382 0.163145,-5.96025 3.615258,-10.6986 10.9786569,-13.73249 1.584978,-0.65306 2.860431,-0.90575 3.978568,-0.92553 z m -7.152534,4.9382 c -0.08391,-10e-4 -0.18926,0.0189 -0.329695,0.0801 -0.37451,0.1632 -0.364859,0.3406 -0.42013,0.47232 -0.05519,0.1318 -0.0942,0.26603 -0.132808,0.416 -0.0772,0.29993 -0.145175,0.65847 -0.20929,1.01803 -0.06411,0.35956 -0.123213,0.719 -0.174666,0.99632 -0.02573,0.13866 -0.02812,0.23057 -0.101499,0.35573 -0.07337,0.12516 -0.15268,0.17134 -0.261271,0.26128 -0.217181,0.1799 -0.502097,0.4062 -0.784965,0.63718 -0.282868,0.23096 -0.56158,0.4646 -0.785998,0.67799 -0.112213,0.10669 -0.210941,0.20546 -0.299207,0.31781 -0.08827,0.11235 -0.2489639,0.19123 -0.2092899,0.59789 0.03967,0.40667 0.2125809,0.45347 0.3209109,0.54674 0.108337,0.0933 0.223773,0.17216 0.3545,0.25528 0.261452,0.16625 0.581098,0.34089 0.903304,0.51315 0.322207,0.17226 0.6456,0.34014 0.893486,0.47491 0.12394,0.0674 0.209772,0.0982 0.306648,0.20642 0.09688,0.10824 0.115697,0.19835 0.167742,0.32946 0.104089,0.26222 0.23191,0.6026 0.364319,0.94309 0.132409,0.34049 0.268834,0.67913 0.402559,0.9586 0.06686,0.13973 0.130699,0.26369 0.210323,0.3824 0.07962,0.11872 0.104821,0.29479 0.503847,0.38293 0.399024,0.0881 0.49643,-0.0612 0.618567,-0.13539 0.122148,-0.0741 0.232521,-0.15928 0.351917,-0.25787 0.238789,-0.19718 0.504148,-0.44712 0.767395,-0.70022 0.263263,-0.25308 0.521917,-0.50825 0.726569,-0.70228 0.102315,-0.097 0.157941,-0.17083 0.291182,-0.22804 0.133239,-0.0572 0.223835,-0.0488 0.364594,-0.0577 0.281522,-0.0178 0.645575,-0.0342 1.010274,-0.0548 0.364702,-0.0205 0.729051,-0.0446 1.036111,-0.0853 0.153535,-0.0203 0.290917,-0.0437 0.428397,-0.0827 0.137481,-0.039 0.312926,-0.007 0.519867,-0.35915 0.206936,-0.35219 0.09486,-0.49186 0.06201,-0.63097 -0.03284,-0.1391 -0.08052,-0.27038 -0.137459,-0.41444 -0.113879,-0.28812 -0.269401,-0.61751 -0.428916,-0.9462 -0.159506,-0.32868 -0.322498,-0.65379 -0.443899,-0.90847 -0.0607,-0.12733 -0.113776,-0.20291 -0.127151,-0.34772 -0.01339,-0.14481 0.02294,-0.22828 0.0579,-0.3649 0.0699,-0.27324 0.166944,-0.62453 0.259931,-0.97772 0.09298,-0.35318 0.181661,-0.70722 0.237713,-1.01182 0.02802,-0.1523 0.04891,-0.28921 0.05426,-0.43201 0.0053,-0.14281 0.08975,-0.30088 -0.181385,-0.60669 -0.271121,-0.30581 -0.438412,-0.24139 -0.580842,-0.25321 -0.142438,-0.0118 -0.281572,-0.008 -0.43615,0.001 -0.309163,0.0191 -0.670663,0.0653 -1.032494,0.11524 -0.361831,0.05 -0.721802,0.10445 -1.00149,0.14108 -0.139838,0.0183 -0.228526,0.0447 -0.370139,0.0136 -0.141613,-0.0311 -0.209865,-0.0926 -0.329044,-0.16812 -0.238305,-0.15106 -0.541811,-0.35209 -0.849042,-0.54983 -0.307237,-0.19775 -0.616419,-0.39089 -0.888834,-0.53847 -0.136218,-0.0738 -0.260633,-0.13675 -0.394808,-0.18603 -0.08385,-0.0308 -0.164012,-0.0926 -0.303859,-0.0946 z m 0.249597,1.41025 c 0.20247,0.11546 0.435711,0.25514 0.688846,0.41807 0.298402,0.19206 0.600625,0.39278 0.855763,0.55448 0.127574,0.0809 0.242615,0.15154 0.34675,0.21033 0.104129,0.0588 0.1496,0.10731 0.358634,0.15348 0.209035,0.0462 0.270465,0.0208 0.389639,0.0114 0.119182,-0.009 0.252331,-0.0248 0.402042,-0.0444 0.299429,-0.0392 0.658331,-0.0941 1.009759,-0.14263 0.298143,-0.0412 0.56774,-0.071 0.799952,-0.0904 -0.04714,0.22821 -0.108352,0.49179 -0.185002,0.7829 -0.09031,0.34303 -0.188198,0.69346 -0.263033,0.98598 -0.03742,0.14627 -0.06829,0.27765 -0.09198,0.39481 -0.02368,0.11717 -0.05644,0.17506 -0.03566,0.38809 0.02077,0.21304 0.06315,0.26373 0.109037,0.37414 0.04589,0.11041 0.103479,0.23264 0.168463,0.36897 0.129971,0.27266 0.292079,0.59698 0.447003,0.91622 0.131397,0.27076 0.24244,0.51797 0.332795,0.73277 -0.231529,0.0255 -0.50124,0.0487 -0.801502,0.0656 -0.354216,0.02 -0.716634,0.0357 -1.018024,0.0548 -0.150696,0.01 -0.28585,0.0194 -0.404627,0.0331 -0.118772,0.0136 -0.183116,2.7e-4 -0.379304,0.0858 -0.196191,0.0855 -0.23113,0.14244 -0.321945,0.22015 -0.09082,0.0777 -0.189632,0.16901 -0.299207,0.27285 -0.219109,0.20771 -0.478126,0.46317 -0.733806,0.709 -0.216625,0.20825 -0.416496,0.38994 -0.592727,0.54208 -0.09598,-0.21234 -0.20202,-0.46158 -0.311092,-0.74207 -0.128606,-0.33071 -0.255469,-0.67012 -0.366903,-0.95085 -0.05572,-0.14036 -0.106864,-0.2659 -0.15658,-0.37465 -0.04971,-0.10874 -0.05744,-0.17518 -0.199472,-0.33538 -0.142036,-0.1602 -0.206477,-0.17534 -0.308508,-0.23771 -0.102017,-0.0624 -0.220258,-0.12785 -0.35295,-0.19999 -0.26538,-0.14429 -0.588287,-0.31174 -0.901233,-0.47905 -0.265506,-0.14194 -0.500336,-0.27611 -0.699699,-0.39687 0.172314,-0.15686 0.377107,-0.33359 0.610299,-0.524 0.274738,-0.22433 0.558127,-0.45079 0.790649,-0.64337 0.116244,-0.0963 0.219941,-0.18428 0.307992,-0.2651 0.08806,-0.0808 0.148413,-0.10697 0.256832,-0.29146 0.10842,-0.18449 0.103495,-0.25167 0.131258,-0.36793 0.02776,-0.11627 0.05411,-0.24843 0.08165,-0.39688 0.05508,-0.29689 0.113943,-0.65536 0.176216,-1.00459 0.05277,-0.29596 0.106577,-0.56081 0.15968,-0.78755 z m 38.617799,0.48525 c 0.348758,0 0.674036,0.0641 0.961181,0.22479 0.419362,0.23465 0.827807,0.58166 1.014142,1.02461 0.176041,0.41848 0.139602,0.92332 0.02196,1.36181 -0.08,0.29819 -0.259422,0.57107 -0.476459,0.79426 -0.0027,-0.0468 -0.0047,-0.0929 -0.0093,-0.14159 -0.02889,-0.3036 -0.0893,-0.58544 -0.192236,-0.84646 -0.05147,-0.13051 -0.111956,-0.25842 -0.214974,-0.39739 -0.103023,-0.13898 -0.292126,-0.32652 -0.535884,-0.38189 -0.243761,-0.0554 -0.404702,0.0531 -0.485243,0.15038 -0.08054,0.0973 -0.118404,0.20233 -0.14676,0.31471 -0.05671,0.22475 -0.06712,0.49015 -0.03824,0.79375 0.02889,0.3036 0.09136,0.58802 0.194299,0.84904 0.02522,0.0639 0.08682,0.19017 0.08682,0.19017 0,0 -0.163425,0.0584 -0.248891,0.0681 -0.131625,0.0149 -0.25644,0.0213 -0.397063,-0.0164 -0.93672,-0.20389 -1.619541,-1.00824 -1.619541,-1.96835 0,-1.11364 0.917906,-2.01952 2.086176,-2.01952 z m -5.379001,1.18959 c 1.168271,0 2.08773,0.90588 2.08773,2.01951 0,0.43842 -0.143976,0.84318 -0.388091,1.17461 -0.0024,-0.0346 -0.0033,-0.0678 -0.0067,-0.10336 -0.02889,-0.30359 -0.09137,-0.58596 -0.194305,-0.84697 -0.05147,-0.13051 -0.109363,-0.25532 -0.212389,-0.39429 -0.103021,-0.13897 -0.294193,-0.32963 -0.537951,-0.38499 -0.243758,-0.0554 -0.404183,0.0552 -0.484724,0.15244 -0.08054,0.0973 -0.118923,0.20027 -0.147278,0.31265 -0.05672,0.22475 -0.06506,0.49118 -0.03617,0.79478 0.02889,0.3036 0.0893,0.58751 0.192235,0.84853 0.0483,0.12246 0.107636,0.24108 0.199472,0.37 -0.05706,0.0241 -0.112752,0.0485 -0.168465,0.0729 -0.09912,0.0137 -0.199856,0.0233 -0.303342,0.0233 -1.168271,0 -2.087727,-0.90588 -2.087727,-2.01952 0,-1.11363 0.919456,-2.01952 2.087727,-2.01952 z m 6.248715,3.92999 c 0.19177,5.3e-4 0.381524,0.005 0.565857,0.017 1.597231,0.10315 2.794116,0.61829 3.296957,1.59215 0.532619,1.03151 0.352962,1.9052 -0.545187,2.78898 -0.898147,0.88377 -2.599087,1.66578 -4.982642,2.01951 -2.396273,0.35564 -3.953409,0.14266 -4.929415,-0.28112 -0.976005,-0.42377 -1.407779,-1.03429 -1.623155,-1.66243 -0.19549,-0.57015 -0.107752,-1.1 0.437698,-1.73994 0.419605,-0.4923 1.13943,-1.0132 2.187979,-1.49139 2.65e-4,-1.2e-4 7.94e-4,1.3e-4 0.0011,0 0.397213,-0.0799 0.767879,-0.23273 1.10019,-0.44028 0.985351,-0.34547 2.073976,-0.60154 3.133143,-0.72347 0.159663,0.0236 0.321921,0.0398 0.487826,0.0398 0.300897,0 0.591714,-0.0436 0.869714,-0.11885 z m 1.428853,1.60714 c -0.704749,0 -1.228349,0.61464 -1.228349,1.28519 0,0.67055 0.5236,1.28313 1.228349,1.28313 0.70475,0 1.228866,-0.61258 1.228866,-1.28313 0,-0.67055 -0.524116,-1.28519 -1.228866,-1.28519 z m -4.60902,0.80253 c -0.70475,0 -1.228865,0.61258 -1.228865,1.28313 0,0.67055 0.524115,1.28519 1.228865,1.28519 0.704749,0 1.228349,-0.61464 1.228349,-1.28519 0,-0.67055 -0.5236,-1.28313 -1.228349,-1.28313 z m 11.441163,0.66818 5.541264,3.27938 -1.098124,8.64806 -5.58364,1.64692 0.280085,-3.33623 c 0.01228,-0.0803 0.01908,-0.16203 0.02066,-0.24494 z m -1.727542,4.81366 c 0.07646,5.3e-4 0.06406,0.002 0.117306,0.004 l -0.289388,3.4463 c -0.168492,-0.087 -0.346128,-0.15872 -0.531752,-0.21549 -0.832744,-0.2547 -1.835086,-0.27958 -2.90473,-0.2558 -0.921306,0.0205 -1.564416,-0.0561 -2.474267,-0.0274 0.440631,-0.69856 0.809043,-1.43862 1.129128,-2.14871 0.08068,0.008 0.162245,5.3e-4 0.239778,-0.0233 2.271662,-0.70537 3.994499,-0.78434 4.713925,-0.77979 z"
       id="path4536-5-3-5-7"
       inkscape:connector-curvature="0"
       sodipodi:nodetypes="cccccsccccssccccccccsccccccccccccccccccccccccccccccccccscccsccccccccccccccccscsccccccccccccccccscccccccccccccccccssccsccccccccccsccccscccccscccccssssccsccccccccccccccccscccsccccccccccccccccccsccccccccccccccccccccccccccccccsccccccccccccccccccccccccccsaaaccccccccccaccsssscccccccscccssssccccccccccccsccssssssssssccccccccccscccccc" />
  </g>
</svg>
