<?xml version="1.0" encoding="UTF-8" standalone="no"?>
<!-- Created with Inkscape (http://www.inkscape.org/) -->

<svg
   xmlns:dc="http://purl.org/dc/elements/1.1/"
   xmlns:cc="http://creativecommons.org/ns#"
   xmlns:rdf="http://www.w3.org/1999/02/22-rdf-syntax-ns#"
   xmlns:svg="http://www.w3.org/2000/svg"
   xmlns="http://www.w3.org/2000/svg"
   xmlns:sodipodi="http://sodipodi.sourceforge.net/DTD/sodipodi-0.dtd"
   xmlns:inkscape="http://www.inkscape.org/namespaces/inkscape"
   width="53mm"
   height="66mm"
   viewBox="0 0 53 66"
   version="1.1"
   id="svg8"
   inkscape:version="0.92.3 (2405546, 2018-03-11)"
   sodipodi:docname="sedici.svg">
  <defs
     id="defs2" />
  <sodipodi:namedview
     id="base"
     pagecolor="#ffffff"
     bordercolor="#666666"
     borderopacity="1.0"
     inkscape:pageopacity="0.0"
     inkscape:pageshadow="2"
     inkscape:zoom="3.959798"
     inkscape:cx="86.38994"
     inkscape:cy="24.659998"
     inkscape:document-units="mm"
     inkscape:current-layer="layer1"
     showgrid="false"
     inkscape:window-width="1920"
     inkscape:window-height="1027"
     inkscape:window-x="-8"
     inkscape:window-y="-8"
     inkscape:window-maximized="1" />
  <metadata
     id="metadata5">
    <rdf:RDF>
      <cc:Work
         rdf:about="">
        <dc:format>image/svg+xml</dc:format>
        <dc:type
           rdf:resource="http://purl.org/dc/dcmitype/StillImage" />
        <dc:title />
      </cc:Work>
    </rdf:RDF>
  </metadata>
  <g
     inkscape:label="Layer 1"
     inkscape:groupmode="layer"
     id="layer1"
     transform="translate(0,-231)">
    <path
       style="color:#000000;font-style:normal;font-variant:normal;font-weight:normal;font-stretch:normal;font-size:medium;line-height:normal;font-family:sans-serif;font-variant-ligatures:normal;font-variant-position:normal;font-variant-caps:normal;font-variant-numeric:normal;font-variant-alternates:normal;font-feature-settings:normal;text-indent:0;text-align:start;text-decoration:none;text-decoration-line:none;text-decoration-style:solid;text-decoration-color:#000000;letter-spacing:normal;word-spacing:normal;text-transform:none;writing-mode:lr-tb;direction:ltr;text-orientation:mixed;dominant-baseline:auto;baseline-shift:baseline;text-anchor:start;white-space:normal;shape-padding:0;clip-rule:nonzero;display:inline;overflow:visible;visibility:visible;opacity:1;isolation:auto;mix-blend-mode:normal;color-interpolation:sRGB;color-interpolation-filters:linearRGB;solid-color:#000000;solid-opacity:1;vector-effect:none;fill:#000000;fill-opacity:1;fill-rule:nonzero;stroke:none;stroke-width:1.20000017;stroke-linecap:round;stroke-linejoin:round;stroke-miterlimit:4;stroke-dasharray:none;stroke-dashoffset:0;stroke-opacity:1;color-rendering:auto;image-rendering:auto;shape-rendering:auto;text-rendering:auto;enable-background:accumulate"
       d="m 34.499875,234.61121 c -0.37514,-0.006 -0.88119,0.0178 -1.40405,0.13488 -0.52286,0.11707 -1.08337,0.33042 -1.54667,0.74776 -0.4633,0.41733 -0.79705,1.05447 -0.83975,1.84381 -1.8e-4,0.003 1.8e-4,0.006 0,0.01 -0.30495,-0.008 -0.62055,-0.009 -0.95911,0.006 -3.9628,0.1818 -8.03201,3.46644 -9.70328,10.50582 -0.002,0.009 -0.004,0.0182 -0.005,0.0274 -1.47384,-0.91893 -3.26329,-1.45179 -4.82297,-1.68568 -1.30848,-0.19623 -2.44034,-0.20514 -3.26336,0.10903 -0.41151,0.15709 -0.83965,0.47099 -0.91209,0.98444 -0.0724,0.51345 0.20691,0.94154 0.59945,1.32447 0.65095,0.63499 1.18385,1.26522 1.63142,1.85311 -0.25618,0.13511 -0.49123,0.30217 -0.68419,0.52968 -0.26315,0.31025 -0.4211,0.69866 -0.52142,1.16014 -0.14789,0.68032 0.0991,1.33328 0.47284,1.85519 0.30353,0.42385 0.70286,0.77988 1.17409,0.99218 -4.9552897,8.20426 -7.0802397,20.8667 -3.9945897,30.35939 l -4.27726,3.17397 c -1.76367,1.30802 -1.97793,3.2859 -1.13275,4.6271 0.84518,1.3412 2.68299,2.07755 4.56613,1.30638 1.6772197,-0.68684 3.4130497,-1.53862 4.9981497,-2.24172 1.3249,-0.58768 2.55053,-1.06111 3.49074,-1.26246 0.52504,1.92946 1.93675,3.12593 3.43287,3.21738 0.8216,0.0502 1.66039,-0.2542 2.28358,-0.90227 0.62319,-0.64807 1.02971,-1.61318 1.13068,-2.85977 0.003,-0.0394 0.005,-0.0706 0.008,-0.10956 0.55386,-0.0307 1.09887,0.0755 1.90221,0.22221 0.038,0.20639 0.0772,0.40868 0.11937,0.60048 0.17966,1.69071 1.18306,2.91618 2.46083,3.19154 1.28244,0.27637 2.6972,-0.49919 3.44372,-2.19729 0.11774,-0.26782 0.21147,-0.58115 0.29042,-0.93017 0.9636,0.15664 2.45651,0.71824 4.01216,1.45727 1.84517,0.87658 3.81909,1.9654 5.40432,2.78743 1.8427,0.95556 3.93145,0.27001 4.96869,-1.18184 0.51862,-0.72592 0.77689,-1.66442 0.5979,-2.64273 -0.17898,-0.97831 -0.78423,-1.97086 -1.87121,-2.86132 l -3.58221,-2.93523 c 0.12793,-0.36259 0.24812,-0.73209 0.36381,-1.10484 0.15692,0.0418 0.85443,0.21547 1.70067,0.20826 0.7089,-0.006 1.50029,-0.29109 2.14663,-0.83199 2.6e-4,-2.6e-4 0.002,2.6e-4 0.002,0 0.58003,0.0833 1.21408,0.008 1.83555,-0.29869 0.62999,-0.31062 1.05232,-0.79272 1.26762,-1.3069 0.21529,-0.51418 0.23988,-1.04107 0.19534,-1.50378 -0.0891,-0.92543 -0.46871,-1.66812 -0.46871,-1.66812 -0.10745,-0.22326 -0.34107,-0.35753 -0.58807,-0.33796 -0.42876,0.0331 -0.68451,0.49326 -0.48628,0.87488 0,0 0.28658,0.58917 0.34985,1.24643 0.0316,0.32864 0.003,0.65423 -0.10955,0.92346 -0.11273,0.26923 -0.29436,0.49979 -0.69144,0.69557 -0.17432,0.0859 -0.32796,0.0491 -0.49609,0.0822 0.18845,-0.80473 0.11567,-1.58331 -0.32814,-2.09599 -0.28789,-0.33257 -0.69492,-0.56698 -1.15394,-0.58963 -0.45902,-0.0227 -0.93441,0.18527 -1.28933,0.56637 -0.3899,0.41866 -0.50513,1.00554 -0.38499,1.50017 0.12015,0.49463 0.42622,0.91869 0.83251,1.2516 0.0844,0.0691 0.22005,0.0761 0.3142,0.13694 -0.28829,0.0986 -0.612,0.15104 -0.95912,0.154 -0.63705,0.005 -1.19032,-0.11884 -1.35599,-0.15968 2.42905,-8.98653 1.49226,-20.37133 -2.48408,-27.90734 0.41461,-0.37024 0.74926,-0.85807 0.98495,-1.37821 0.1711,-0.37758 0.28624,-0.77374 0.27543,-1.18908 -0.0108,-0.41533 -0.19689,-0.88531 -0.59376,-1.15858 -0.16713,-0.11508 -0.33524,-0.22769 -0.50281,-0.34158 0.44956,-0.62822 1.04555,-1.32556 1.83503,-2.01745 0.42767,-0.3748 0.72901,-0.80104 0.709,-1.31672 -0.02,-0.51568 -0.396,-0.90164 -0.79892,-1.12086 -0.80583,-0.43842 -1.96848,-0.55527 -3.3476,-0.47284 h -5.3e-4 c -1.75798,0.10508 -3.85007,0.58586 -5.65443,1.60249 -0.39394,-1.43029 -0.59892,-3.27496 0.23048,-4.82916 0.50719,-0.95044 0.67037,-1.26698 0.96635,-1.82883 0.20314,0.0533 0.40209,0.099 0.59066,0.13591 0.568,0.11107 1.12181,-0.0493 1.56063,-0.33228 0.43882,-0.28298 0.78922,-0.67918 1.08159,-1.11518 0.58471,-0.872 0.94215,-1.88713 0.9865,-2.70733 0.0436,-0.80648 -0.29878,-1.54309 -0.90796,-2.00969 -0.60915,-0.46661 -1.42128,-0.72639 -2.43962,-0.92553 l -0.0176,-0.002 -0.0176,-0.004 c 0,0 -0.24445,-0.035 -0.6196,-0.0408 z m -4.06538,3.92793 c 0.13278,5.6e-4 0.25597,0.007 0.38137,0.0114 0.21249,0.87979 0.70593,1.56857 1.30948,2.04535 0.3194,0.25231 0.66378,0.45331 1.01441,0.61495 -0.25596,0.48547 -0.40728,0.77722 -0.8816,1.66605 -0.93856,1.75877 -0.85443,3.66818 -0.49661,5.21829 -1.81874,-0.17524 -4.60893,-0.21943 -7.38818,-0.0894 -1.09575,0.0513 -2.17663,0.12636 -3.19361,0.23306 0.0149,-0.033 0.0269,-0.0672 0.0357,-0.10232 1.59109,-6.70168 5.24433,-9.43045 8.58966,-9.58391 0.21848,-0.01 0.42826,-0.0143 0.62942,-0.0134 z m 3.2706,1.60352 c -0.29468,-0.13131 -0.58939,-0.29384 -0.83561,-0.48834 -0.33312,-0.26315 -0.60464,-0.59541 -0.76998,-0.97514 -0.16699,-0.38351 -0.24235,-0.82507 -0.1912,-1.24023 0.0466,-0.37836 0.19065,-0.82113 0.44338,-1.0542 0.24942,-0.22467 0.61393,-0.37882 1.00614,-0.46664 0.38793,-0.0869 0.77961,-0.10679 1.07642,-0.10438 0.29682,0.002 0.49866,0.0268 0.50746,0.0279 0.92,0.18203 1.57291,0.42622 1.92185,0.6935 0.35211,0.2697 0.46658,0.4985 0.43977,0.99425 -0.0261,0.48202 -0.32793,1.42396 -0.78342,2.10323 -0.22774,0.33964 -0.49013,0.61686 -0.73639,0.77567 -0.24626,0.1588 -0.44912,0.2068 -0.67954,0.16174 -0.0777,-0.0152 -0.16099,-0.0348 -0.2403,-0.0568 -0.39067,-0.1085 -0.78823,-0.20548 -1.15858,-0.37052 z m -19.9192,7.13807 c 0.38122,0.006 0.80797,0.0391 1.25367,0.10593 1.20637,0.18092 2.56133,0.59496 3.73465,1.20355 -0.81408,0.16024 -1.53646,0.35426 -2.10374,0.59738 -0.94263,0.40398 -1.64939,0.63169 -2.24018,0.83044 -0.52712,-0.72093 -1.17502,-1.50302 -1.94923,-2.25826 -0.13114,-0.12792 -0.19066,-0.22039 -0.21859,-0.27182 0.0211,-0.012 0.0411,-0.0259 0.12092,-0.0563 0.25842,-0.0987 0.76713,-0.1614 1.4025,-0.15089 z m 25.48475,0.56844 c 1.04346,-0.0114 1.8967,0.15448 2.24534,0.34416 0.13433,0.0731 0.16387,0.10785 0.17002,0.11679 -0.002,-0.017 -0.0178,0.11715 -0.29921,0.3638 -0.85689,0.75096 -1.52239,1.5402 -2.0345,2.26653 -1.3596,-0.8763 -2.78058,-1.66504 -4.41885,-2.19832 1.29859,-0.51911 2.68098,-0.80531 3.87934,-0.87694 0.15593,-0.009 0.30879,-0.0144 0.45786,-0.016 z m -0.71365,7.32667 c -0.16929,0.0454 -0.34449,0.0224 -0.52555,-0.0155 -0.32832,-0.0688 -0.71309,-0.2574 -1.17771,-0.51779 -0.92924,-0.52078 -2.16579,-1.30213 -3.9982,-1.53118 -0.003,-1e-5 -0.005,-1e-5 -0.008,0 -3.11043,-0.34373 -6.22244,0.33119 -9.31054,0.84388 -2.67313,0.4438 -5.30429,0.54712 -7.94215,0.30127 -0.41811,-0.039 -0.84876,-0.1 -1.22835,-0.27955 -0.32383,-0.15319 -0.61769,-0.33581 -0.84904,-0.65888 -0.23364,-0.32626 -0.32448,-0.68408 -0.2775,-0.9002 0.0752,-0.34614 0.16363,-0.52055 0.26561,-0.64079 0.0949,-0.11195 0.30484,-0.22889 0.47439,-0.31368 0.36451,-0.18227 0.76887,-0.27066 1.15135,-0.41135 0.67276,-0.24747 1.1964,-0.41197 2.01125,-0.7612 0.66868,-0.28657 2.07341,-0.55222 3.13159,-0.71623 1.57449,-0.24403 3.17225,-0.31489 4.76354,-0.3948 0.90609,-0.0455 1.84614,-0.0509 2.72128,-0.0481 1.50087,0.005 2.57465,0.0279 3.85402,0.15554 0.64503,0.0643 1.29969,0.11976 1.9203,0.30695 1.81433,0.54724 3.51681,1.43692 5.17384,2.35644 0.34815,0.1932 0.6647,0.43854 0.99529,0.66044 0.15507,0.10408 0.30798,0.20759 0.46354,0.31471 0.0557,0.0384 0.0705,0.0511 0.0744,0.20102 0.004,0.14996 -0.0514,0.40221 -0.17002,0.66404 -0.12113,0.26732 -0.28985,0.55273 -0.51056,0.76585 -0.28265,0.27291 -0.62353,0.5174 -1.00304,0.61907 z m -7.46053,-0.95549 c 0.54503,-5.3e-4 1.08435,0.0252 1.61851,0.0842 1.5642,0.19753 2.57781,0.83941 3.5512,1.38493 0.48763,0.2733 0.96721,0.52876 1.51929,0.64441 0.42727,0.0895 0.89701,0.0731 1.37046,-0.0796 4.10029,7.89989 4.8398,20.71046 1.56114,29.57959 -0.0883,0.24014 -0.0147,0.50988 0.18345,0.67179 l 3.88865,3.18585 c 0.92017,0.75381 1.33237,1.49858 1.4516,2.15026 0.11922,0.65168 -0.0453,1.23722 -0.39481,1.72651 -0.69912,0.97857 -2.13567,1.49265 -3.43959,0.81649 -1.5614,-0.80968 -3.54756,-1.90704 -5.44101,-2.80654 -1.58818,-0.7545 -3.07603,-1.38906 -4.32687,-1.56994 0.0267,-0.20597 0.0529,-0.4133 0.0765,-0.63355 0.12132,-1.1318 0.19332,-2.41909 0.23461,-3.63854 0.0826,-2.43891 0.047,-4.6054 0.047,-4.6054 -1.7e-4,-0.33874 -0.28051,-0.61019 -0.61908,-0.59945 -0.33201,0.01 -0.59307,0.2871 -0.5824,0.61908 0,0 0.0365,2.14178 -0.045,4.54494 -0.0407,1.20159 -0.11215,2.46821 -0.22841,3.55276 -0.11626,1.08455 -0.30007,2.00892 -0.47284,2.40192 -0.59135,1.34514 -1.40534,1.6562 -2.09341,1.50792 -0.68807,-0.14827 -1.38988,-0.85276 -1.52343,-2.15594 -0.003,-0.0236 -0.007,-0.0471 -0.0119,-0.0703 -0.0577,-0.25769 -0.11054,-0.54034 -0.16072,-0.83405 0.0127,-0.10908 -0.005,-0.21956 -0.0506,-0.31937 -0.36969,-2.3519 -0.5209,-5.37797 -0.5209,-5.37797 -0.0365,-0.7996 -1.23593,-0.74483 -1.19941,0.0548 0,0 0.11753,2.50278 0.4377,4.82916 -0.57797,-0.10526 -1.08407,-0.18355 -1.61902,-0.17156 0.24901,-3.7947 0.0894,-5.42345 0.0894,-5.42345 -0.0589,-0.82348 -1.30359,-0.69518 -1.19321,0.123 0,0 0.16589,1.65703 -0.13591,5.79757 -0.0255,0.0849 -0.0318,0.17437 -0.0186,0.262 -0.012,0.15805 -0.0197,0.29275 -0.0331,0.45786 -0.0842,1.03946 -0.40846,1.72096 -0.79892,2.127 -0.39046,0.40604 -0.84957,0.56556 -1.34359,0.53537 -0.96991,-0.0593 -2.10632,-0.932 -2.43551,-2.70475 2.7e-4,-0.0703 -0.0118,-0.14008 -0.0357,-0.20619 -0.67054,-4.1153 -0.84335,-8.51886 -0.84335,-8.51886 -0.009,-0.33812 -0.29479,-0.60234 -0.63252,-0.58394 -0.33051,0.0181 -0.58392,0.30043 -0.56638,0.63097 0,0 0.16254,4.1136 0.786,8.18038 -1.12623,0.22866 -2.39549,0.74282 -3.75687,1.34669 -1.61601,0.71681 -3.34316,1.56396 -4.9666297,2.2288 -1.3981,0.57254 -2.55328,0.025 -3.09593,-0.83612 -0.54264,-0.86112 -0.54054,-2.00359 0.83199,-3.02152 l 4.5997197,-3.4122 c 0.21056,-0.15564 0.2959,-0.42984 0.21084,-0.67748 -3.1609497,-9.15967 -0.9760797,-22.11206 3.92586,-30.07878 3.01581,0.64664 5.98118,0.27611 8.83977,-0.19844 2.53842,-0.42143 5.00002,-0.91793 7.36182,-0.92036 z m -9.06146,3.69642 c -0.24692,-5e-5 -0.42692,0.13045 -0.53227,0.23254 -0.14047,0.13611 -0.22728,0.28303 -0.31006,0.44855 -0.16554,0.33106 -0.29566,0.74542 -0.38912,1.22267 -0.0935,0.47725 -0.1322,0.92402 -0.10956,1.32291 0.0113,0.19945 0.0333,0.38514 0.10542,0.5979 0.0721,0.21276 0.24001,0.56091 0.62787,0.70073 0.38785,0.13983 0.65898,-0.0499 0.79944,-0.18603 0.14047,-0.13611 0.2278,-0.28303 0.31057,-0.44855 0.16555,-0.33106 0.29516,-0.7449 0.38861,-1.22215 0.0935,-0.47725 0.13218,-0.92402 0.10955,-1.32292 -0.0113,-0.19944 -0.0327,-0.38565 -0.1049,-0.59841 -0.0721,-0.21276 -0.23898,-0.55781 -0.62683,-0.69763 -0.097,-0.035 -0.18642,-0.0496 -0.26872,-0.0496 z m 8.86302,0.0894 c -0.31769,0.0234 -0.49468,0.23309 -0.58446,0.37879 -0.10261,0.16651 -0.15019,0.33027 -0.18965,0.51108 -0.0789,0.36162 -0.10291,0.79497 -0.076,1.28054 0.027,0.48556 0.0994,0.92845 0.21962,1.30948 0.0601,0.19051 0.12674,0.36501 0.24908,0.55345 0.12233,0.18845 0.36894,0.48245 0.77928,0.52245 0.41034,0.04 0.62861,-0.20866 0.73122,-0.37517 0.10261,-0.16651 0.15072,-0.32975 0.19017,-0.51056 0.0789,-0.36162 0.10292,-0.79498 0.076,-1.28054 -0.027,-0.48557 -0.0994,-0.92845 -0.21963,-1.30948 -0.0601,-0.19052 -0.12725,-0.36553 -0.24959,-0.55398 -0.12234,-0.18844 -0.37051,-0.48399 -0.78084,-0.52399 -0.0513,-0.005 -0.0998,-0.005 -0.14521,-0.002 z m -4.74906,5.47615 c -1.80278,-0.0217 -4.12546,0.18824 -6.088,0.83406 -0.98127,0.3229 -1.8763,0.75253 -2.57039,1.35909 -0.6941,0.60656 -1.18272,1.42465 -1.23248,2.39262 -0.0485,0.9437 0.28294,1.80434 0.85369,2.48873 0.57076,0.68439 1.3661,1.21217 2.28875,1.62109 1.8453,0.81784 4.22444,1.16919 6.55878,1.09761 2.24811,-0.0689 4.7326,-0.0651 6.72672,-0.60565 0.99706,-0.27026 1.88963,-0.68194 2.53679,-1.3689 0.64716,-0.68697 0.99608,-1.65095 0.93173,-2.80707 -0.0648,-1.1647 -0.54126,-2.1203 -1.25574,-2.81843 -0.71448,-0.69813 -1.64374,-1.15411 -2.64635,-1.46865 -2.00524,-0.62907 -4.34251,-0.70334 -6.1035,-0.7245 z m -0.016,1.19941 c 1.73521,0.0209 3.99097,0.11415 5.76193,0.66973 0.88547,0.27778 1.6403,0.6679 2.16627,1.18184 0.52597,0.51393 0.84654,1.13743 0.89607,2.02726 0.05,0.89841 -0.18111,1.46168 -0.60927,1.91616 -0.42815,0.45449 -1.10612,0.79913 -1.97662,1.03508 -1.741,0.47192 -4.17794,0.49468 -6.44922,0.56431 -2.18508,0.067 -4.42838,-0.28414 -6.03529,-0.99632 -0.80346,-0.35609 -1.44232,-0.80035 -1.85311,-1.29294 -0.4108,-0.4926 -0.60919,-1.01444 -0.5762,-1.65624 0.0318,-0.61751 0.30664,-1.10028 0.82217,-1.5508 0.51553,-0.45053 1.2743,-0.83471 2.15646,-1.125 1.76431,-0.58058 4.00337,-0.79344 5.69681,-0.77308 z m -2.67787,2.50941 c -0.72167,0.0402 -1.22486,0.6992 -1.18649,1.38854 0.0384,0.68935 0.61157,1.28815 1.33325,1.24799 0.72167,-0.0402 1.22279,-0.69868 1.18442,-1.38803 -0.0384,-0.68935 -0.6095,-1.28866 -1.33118,-1.2485 z m 5.41517,0.2992 c -0.72167,0.0402 -1.22279,0.6992 -1.18442,1.38855 0.0384,0.68935 0.60951,1.28814 1.33118,1.24799 0.72169,-0.0402 1.22487,-0.69868 1.1865,-1.38803 -0.0384,-0.68935 -0.61158,-1.28866 -1.33326,-1.24851 z"
       id="path4751-0"
       inkscape:connector-curvature="0"
       sodipodi:nodetypes="cccccsccsscccccccccscccsccccccccscsccccccccccccccccccccccccccccccccccccscccccccccccccccccscccccccaacccccccccaaccccccccccccccccccaccccsaacccaasaasaaaacccaacccccccccccccccccccscscccccccccccccccccccccscccccccccsccccccccccccsccccccccccccccccscccccsscccccccccccccccsccccccccccccccc" />
  </g>
</svg>
