<?xml version="1.0" encoding="UTF-8" standalone="no"?>
<!-- Created with Inkscape (http://www.inkscape.org/) -->

<svg
   xmlns:dc="http://purl.org/dc/elements/1.1/"
   xmlns:cc="http://creativecommons.org/ns#"
   xmlns:rdf="http://www.w3.org/1999/02/22-rdf-syntax-ns#"
   xmlns:svg="http://www.w3.org/2000/svg"
   xmlns="http://www.w3.org/2000/svg"
   xmlns:sodipodi="http://sodipodi.sourceforge.net/DTD/sodipodi-0.dtd"
   xmlns:inkscape="http://www.inkscape.org/namespaces/inkscape"
   width="64mm"
   height="41mm"
   viewBox="0 0 64 41"
   version="1.1"
   id="svg8"
   inkscape:version="0.92.3 (2405546, 2018-03-11)"
   sodipodi:docname="spici.svg">
  <defs
     id="defs2" />
  <sodipodi:namedview
     id="base"
     pagecolor="#ffffff"
     bordercolor="#666666"
     borderopacity="1.0"
     inkscape:pageopacity="0.0"
     inkscape:pageshadow="2"
     inkscape:zoom="2.8"
     inkscape:cx="107.87452"
     inkscape:cy="149.28693"
     inkscape:document-units="mm"
     inkscape:current-layer="layer1"
     showgrid="false"
     inkscape:window-width="1920"
     inkscape:window-height="1027"
     inkscape:window-x="-8"
     inkscape:window-y="-8"
     inkscape:window-maximized="1" />
  <metadata
     id="metadata5">
    <rdf:RDF>
      <cc:Work
         rdf:about="">
        <dc:format>image/svg+xml</dc:format>
        <dc:type
           rdf:resource="http://purl.org/dc/dcmitype/StillImage" />
        <dc:title></dc:title>
      </cc:Work>
    </rdf:RDF>
  </metadata>
  <g
     inkscape:label="Layer 1"
     inkscape:groupmode="layer"
     id="layer1"
     transform="translate(0,-256)">
    <path
       style="color:#000000;font-style:normal;font-variant:normal;font-weight:normal;font-stretch:normal;font-size:medium;line-height:normal;font-family:sans-serif;font-variant-ligatures:normal;font-variant-position:normal;font-variant-caps:normal;font-variant-numeric:normal;font-variant-alternates:normal;font-feature-settings:normal;text-indent:0;text-align:start;text-decoration:none;text-decoration-line:none;text-decoration-style:solid;text-decoration-color:#000000;letter-spacing:normal;word-spacing:normal;text-transform:none;writing-mode:lr-tb;direction:ltr;text-orientation:mixed;dominant-baseline:auto;baseline-shift:baseline;text-anchor:start;white-space:normal;shape-padding:0;clip-rule:nonzero;display:inline;overflow:visible;visibility:visible;opacity:1;isolation:auto;mix-blend-mode:normal;color-interpolation:sRGB;color-interpolation-filters:linearRGB;solid-color:#000000;solid-opacity:1;vector-effect:none;fill:#000000;fill-opacity:1;fill-rule:nonzero;stroke:none;stroke-width:1.20000005;stroke-linecap:round;stroke-linejoin:miter;stroke-miterlimit:4;stroke-dasharray:none;stroke-dashoffset:0;stroke-opacity:1;color-rendering:auto;image-rendering:auto;shape-rendering:auto;text-rendering:auto;enable-background:accumulate"
       d="m 12.235444,259.00437 c -0.409477,-0.006 -0.799037,0.002 -1.158071,0.0145 -0.376338,0.0136 -0.629174,0.0247 -0.907955,0.13695 -0.13939,0.0561 -0.3204227,0.1568 -0.4335637,0.3731 -0.113141,0.2163 -0.08284,0.47577 -0.02532,0.62477 0.115036,0.298 0.264874,0.41322 0.4294287,0.57826 0.164555,0.16504 0.35424,0.34077 0.55294,0.54105 0.759904,0.76597 1.572821,1.84462 1.339453,3.52744 -5.4858567,2.3253 -8.9545867,8.99689 -8.3669307,14.63476 0.26866,2.57748 1.117907,5.25349 2.818432,7.41764 0.301519,0.38372 0.6317479,0.74976 0.9885699,1.09605 -0.9779449,0.53213 -1.7143119,1.19148 -2.1605899,1.92547 -0.535911,0.8814 -0.628984,1.92867 -0.115239,2.76779 0.416592,0.68045 1.185698,0.89158 2.0096949,1.02319 0.823998,0.13162 1.769843,0.14245 2.6799411,0.10542 1.8201927,-0.074 3.5000457,-0.34933 3.5000457,-0.34933 0.068,-0.008 0.134064,-0.0283 0.195337,-0.0589 0.09712,0.13836 0.209957,0.2642 0.337447,0.36949 0.406048,0.33536 0.916619,0.53602 1.4981,0.68161 1.162954,0.29119 2.637972,0.34621 4.160469,0.30076 3.044989,-0.0909 6.200407,-0.59852 7.080187,-0.80098 0.01302,-0.003 0.02595,-0.006 0.03876,-0.01 -0.0871,0.0262 0.153136,-0.0194 0.435632,-0.0295 0.282498,-0.0101 0.665038,-0.0154 1.119311,-0.0176 0.908548,-0.004 2.102263,2.6e-4 3.396176,-0.0176 2.587823,-0.0359 5.557374,-0.14892 7.578347,-0.64079 0.0024,-7.9e-4 0.0048,-0.001 0.0072,-0.002 0.305951,0.32133 0.696648,0.56517 1.123442,0.72503 0.805201,0.30158 1.760879,0.38543 2.788981,0.36948 2.056196,-0.0319 4.408347,-0.49458 6.15828,-0.87902 3.78945,-0.83249 6.394749,-4.50283 7.511685,-7.85171 1.58324,-4.74689 2.203717,-10.15751 -1.111559,-15.14481 0.328149,-0.0614 0.81053,-0.17315 1.332216,-0.38809 0.658757,-0.27141 1.292077,-0.8332 1.691373,-1.58027 0.571998,-0.13934 1.135261,-0.44798 1.599901,-0.96686 0.470503,-0.52545 0.683141,-1.13383 0.691431,-1.69344 0.0083,-0.55961 -0.166431,-1.05954 -0.380858,-1.47433 -0.428847,-0.82957 -1.060918,-1.37873 -1.060918,-1.37873 -0.119316,-0.10927 -0.277707,-0.16574 -0.439248,-0.15658 -0.539131,0.0314 -0.765627,0.70334 -0.355534,1.05472 0,0 0.485939,0.44103 0.791165,1.03146 0.152617,0.29522 0.248277,0.61144 0.243914,0.90589 -0.0044,0.29445 -0.08716,0.57851 -0.384474,0.91054 -0.131138,0.14645 -0.290375,0.16934 -0.435631,0.26355 -0.124283,-0.82249 -0.482026,-1.52166 -1.087787,-1.834 -0.392281,-0.20227 -0.859324,-0.26795 -1.295011,-0.11731 -0.435686,0.15065 -0.800168,0.52197 -0.988054,1.00976 -0.206312,0.53564 -0.09546,1.12513 0.201022,1.54099 0.296484,0.41587 0.74096,0.69742 1.243851,0.85577 0.106741,0.0336 0.238932,-0.0119 0.351917,0.01 -0.23309,0.20284 -0.51848,0.37546 -0.843878,0.50952 -0.701659,0.28909 -1.400429,0.36897 -1.400429,0.36897 -0.08392,0.009 -0.16492,0.0363 -0.237712,0.0791 -0.06597,-0.0836 -0.129548,-0.16737 -0.197921,-0.25062 -3.865497,-4.70663 -10.5765,-5.98444 -16.29668,-6.28748 -3.447767,-0.18258 -6.567398,-0.004 -8.492505,0.0512 0.238759,-0.17906 0.51859,-0.3368 0.845943,-0.4687 0.23009,-0.0927 0.419873,-0.19 0.591696,-0.35967 0.171823,-0.16967 0.322858,-0.51595 0.236162,-0.81649 -0.0867,-0.30053 -0.283298,-0.44507 -0.456814,-0.55086 -0.173519,-0.1058 -0.360093,-0.17755 -0.570508,-0.23979 -0.841662,-0.24892 -2.105529,-0.33649 -3.507799,-0.18396 -1.402268,0.15253 -2.924416,0.55248 -4.165637,1.39474 -0.522272,0.35441 -0.991106,0.79815 -1.366325,1.32809 l -1.942517,0.0822 c -0.563887,-1.78581 -1.887568,-2.94172 -3.449382,-3.47112 -1.297919,-0.43994 -2.705185,-0.57184 -3.933608,-0.58859 z m -0.381373,1.20924 c 1.242597,-0.005 2.690958,0.0968 3.928443,0.51624 1.4839,0.50298 2.601148,1.35467 2.921783,3.05873 0.05526,0.29313 0.31745,0.50116 0.615469,0.48834 l 1.612304,-0.0677 c -0.153101,0.44442 -0.250362,0.92743 -0.274402,1.45211 -0.05631,0.81711 1.180455,0.87362 1.198894,0.0548 0.06674,-1.45658 0.740521,-2.38668 1.744596,-3.06803 1.004075,-0.68135 2.355188,-1.05759 3.620966,-1.19528 1.147812,-0.12485 2.132406,-0.0161 2.755905,0.12661 -1.381448,0.73286 -2.186477,1.91762 -2.424142,3.14658 -0.263162,1.36082 -0.02273,2.70242 0.367419,3.61942 0.29274,0.78373 1.464752,0.28528 1.103292,-0.46922 -0.286266,-0.67285 -0.499566,-1.85366 -0.293005,-2.92179 0.05818,-0.30086 0.148,-0.59004 0.26975,-0.86506 0.03051,0.004 0.06126,0.005 0.09199,0.004 1.873798,0 5.36415,-0.27657 9.288839,-0.0687 5.587539,0.29601 11.940685,1.59418 15.435752,5.84977 4.073991,4.96046 3.522194,10.31884 1.859317,15.30449 -1.020001,3.05823 -3.471212,6.36636 -6.63112,7.06055 -1.72475,0.3789 -4.030906,0.82236 -5.917986,0.85163 -0.943538,0.0146 -1.780389,-0.0812 -2.351278,-0.29507 -0.570886,-0.21382 -0.84469,-0.47073 -0.947226,-0.91002 -0.105773,-0.45312 0.03951,-0.83009 0.423746,-1.26763 0.384238,-0.43754 1.007864,-0.86401 1.666046,-1.21284 1.316366,-0.69766 2.736268,-1.09192 2.736268,-1.09192 0.78843,-0.2014 0.465098,-1.38538 -0.316259,-1.15808 0,0 -1.517285,0.41292 -2.982764,1.1896 -0.73274,0.38834 -1.462164,0.86558 -2.004012,1.48259 -0.528347,0.60165 -0.875504,1.40464 -0.701249,2.26447 -1.808777,0.38618 -4.585521,0.51403 -7.019211,0.54777 -1.280888,0.0178 -2.469322,0.0131 -3.386873,0.0176 -0.458775,0.002 -0.847998,0.007 -1.156002,0.0176 -0.308004,0.011 -0.475721,2.7e-4 -0.740524,0.0801 l 0.03927,-0.0119 c -0.671042,0.15443 -3.913399,0.68401 -6.845578,0.77153 -1.466088,0.0438 -2.875012,-0.0259 -3.832323,-0.26562 -0.478655,-0.11984 -0.837186,-0.28634 -1.027326,-0.44338 -0.190143,-0.15704 -0.23486,-0.24898 -0.226344,-0.45113 0.02821,-0.66997 0.199454,-1.09527 0.456819,-1.42214 0.257366,-0.32687 0.62818,-0.56978 1.119312,-0.77308 0.982266,-0.40662 2.400822,-0.59235 3.816305,-1.02939 0.682514,-0.19832 0.514636,-1.20869 -0.195336,-1.17564 -0.05379,0.003 -0.106982,0.0126 -0.158131,0.0295 -1.279319,0.395 -2.702986,0.56158 -3.921726,1.06608 -0.473879,0.19617 -0.923025,0.4533 -1.299144,0.81029 -3.172531,-0.42922 -5.3517048,-1.84642 -6.8455768,-3.74757 -1.5223149,-1.93735 -2.3200179,-4.39862 -2.5703849,-6.80062 -0.539716,-5.17794 2.9137719,-11.74348 7.9943427,-13.63896 0.195368,-0.073 0.338794,-0.2423 0.378788,-0.447 0.448614,-2.316 -0.808223,-3.91316 -1.687235,-4.79919 -0.08304,-0.0837 -0.134598,-0.13272 -0.20929,-0.20516 0.167896,-0.005 0.341317,-0.007 0.518832,-0.008 z m 33.999992,8.52764 c -0.08961,0.001 -0.179212,0.006 -0.268718,0.016 -0.716053,0.0758 -1.431521,0.42865 -1.923913,1.07642 -0.492395,0.64777 -0.740645,1.56582 -0.63097,2.69131 0.321122,3.29533 2.025716,5.3082 2.025716,5.3082 0.121272,0.14317 0.302532,0.22137 0.489892,0.21136 0,0 3.791778,-0.121 5.672005,-2.63292 1.207767,-1.61354 1.255773,-3.40239 0.429948,-4.51755 -0.412911,-0.55758 -1.066451,-0.9281 -1.800924,-0.94516 -0.47213,-0.011 -0.962874,0.34534 -1.451072,0.60926 -0.16264,-0.50138 -0.409869,-0.95121 -0.791168,-1.24643 -0.50178,-0.38851 -1.123527,-0.57953 -1.750796,-0.57051 z m 0.0155,1.20044 c 0.367742,-0.004 0.73257,0.11154 1.000972,0.31936 0.306744,0.23751 0.507396,0.5706 0.511598,1.09193 0.0042,0.51265 0.60774,0.78431 0.994254,0.44752 0.578009,-0.50296 1.073967,-0.65919 1.443323,-0.65061 0.369356,0.009 0.646324,0.16353 0.863513,0.45682 0.434374,0.58656 0.53799,1.7985 -0.425815,3.08611 -1.278919,1.7086 -3.966694,2.03662 -4.459158,2.0898 -0.26103,-0.33451 -1.319583,-1.76345 -1.574065,-4.37493 -0.08728,-0.89566 0.108464,-1.47412 0.392224,-1.84743 0.283763,-0.37331 0.676899,-0.56541 1.096058,-0.60978 0.0524,-0.006 0.10456,-0.008 0.157096,-0.009 z m -35.184421,1.60662 c -0.483192,-0.0122 -0.7817767,0.5227 -0.517797,0.9276 0.534556,0.85023 1.240713,1.42775 2.062406,1.64847 0.821692,0.22073 1.708102,0.0827 2.595708,-0.30851 0.782058,-0.30114 0.268697,-1.46981 -0.482143,-1.0976 -0.715743,0.31543 -1.307383,0.37855 -1.800923,0.24598 -0.493541,-0.13258 -0.940126,-0.46315 -1.35754,-1.12707 -0.106278,-0.17533 -0.294728,-0.28427 -0.499711,-0.28887 z m 6.462654,1.8185 c -0.48225,-0.0105 -0.779134,0.52349 -0.515731,0.92759 0.589778,0.93359 1.376596,1.50732 2.261878,1.68568 0.885285,0.17835 1.811618,-0.0118 2.773474,-0.3886 0.763926,-0.28335 0.315407,-1.42822 -0.437698,-1.11725 -0.841896,0.3298 -1.544407,0.44155 -2.099614,0.3297 -0.555202,-0.11186 -1.021729,-0.41989 -1.484143,-1.15187 -0.106852,-0.1735 -0.294447,-0.28092 -0.498161,-0.28525 z m -4.235915,3.80338 c -1.638112,0.003 -2.9465087,0.26815 -3.9454958,0.76688 -1.141703,0.56998 -1.87371,1.49223 -2.0587889,2.56418 -0.175077,1.0141 0.0047,2.24472 0.9239749,3.32848 0.919266,1.08376 2.5148168,2.01204 5.1149328,2.66754 2.613456,0.65885 4.8626,0.60666 6.541201,-0.0682 1.678604,-0.67484 2.77476,-2.06537 2.824118,-3.80287 0.05117,-1.80183 -1.240491,-3.1691 -2.908351,-4.03489 -1.667859,-0.8658 -3.780663,-1.323 -5.769154,-1.40612 -0.247526,-0.0104 -0.488421,-0.0154 -0.722437,-0.015 z m 0.0047,1.20096 c 0.215361,-7.9e-4 0.438172,0.003 0.668695,0.0129 1.835888,0.0768 3.817395,0.52193 5.265827,1.27382 1.448435,0.75189 2.295965,1.71674 2.261362,2.93523 -0.03644,1.28281 -0.725775,2.18153 -2.072224,2.72283 -1.346451,0.54131 -3.363145,0.63206 -5.80068,0.0176 -2.45088,-0.61787 -3.8030757,-1.46515 -4.4937838,-2.27945 -0.690708,-0.81431 -0.783219,-1.60348 -0.65474,-2.34766 0.118496,-0.68631 0.528801,-1.25494 1.4102501,-1.69499 0.7712677,-0.38505 1.9077887,-0.63537 3.4152937,-0.64027 z m -0.577225,1.99575 c -0.677754,0 -1.181838,0.58901 -1.181838,1.23041 0,0.64139 0.504084,1.23248 1.181838,1.23248 0.677754,0 1.179774,-0.59109 1.179774,-1.23248 0,-0.6414 -0.50202,-1.23041 -1.179774,-1.23041 z m 4.087606,0.76946 c -0.677751,0 -1.181322,0.58901 -1.181322,1.23041 0,0.64139 0.503571,1.23249 1.181322,1.23249 0.677754,0 1.179774,-0.5911 1.179774,-1.23249 0,-0.6414 -0.50202,-1.23041 -1.179774,-1.23041 z m -7.9700528,7.65741 c 1.3618871,1.03531 3.0450968,1.80276 5.0756578,2.16473 -0.150117,0.37432 -0.24257,0.79839 -0.269751,1.26969 -0.02289,0.002 -0.04567,0.005 -0.06821,0.009 0,0 -1.628061,0.264 -3.3574197,0.33435 -0.8646761,0.0352 -1.7530941,0.0179 -2.4411941,-0.092 -0.6880989,-0.10991 -1.1095249,-0.35503 -1.1756389,-0.46302 -0.263411,-0.43024 -0.250171,-0.91576 0.11679,-1.51929 0.35365,-0.58165 1.0676199,-1.2137 2.1197679,-1.70377 z"
       id="path4536-6-0"
       inkscape:connector-curvature="0"
       sodipodi:nodetypes="cccccsccsscscccccccsccccccccccccccccccccccscscccsccccccccccccssccscccccccccsscscccccccccccccccccccccccccccccccccccssccccccccccccscccccccccccscsccccccccccccccccccccccccccccccccsccccccccssssssscsscccccccccccc" />
  </g>
</svg>
