<?xml version="1.0" encoding="UTF-8" standalone="no"?>
<!-- Created with Inkscape (http://www.inkscape.org/) -->

<svg
   xmlns:dc="http://purl.org/dc/elements/1.1/"
   xmlns:cc="http://creativecommons.org/ns#"
   xmlns:rdf="http://www.w3.org/1999/02/22-rdf-syntax-ns#"
   xmlns:svg="http://www.w3.org/2000/svg"
   xmlns="http://www.w3.org/2000/svg"
   xmlns:sodipodi="http://sodipodi.sourceforge.net/DTD/sodipodi-0.dtd"
   xmlns:inkscape="http://www.inkscape.org/namespaces/inkscape"
   width="85mm"
   height="55mm"
   viewBox="0 0 85 55"
   version="1.1"
   id="svg8"
   inkscape:version="0.92.3 (2405546, 2018-03-11)"
   sodipodi:docname="sala.svg">
  <defs
     id="defs2" />
  <sodipodi:namedview
     id="base"
     pagecolor="#ffffff"
     bordercolor="#666666"
     borderopacity="1.0"
     inkscape:pageopacity="0.0"
     inkscape:pageshadow="2"
     inkscape:zoom="1.4"
     inkscape:cx="79.50788"
     inkscape:cy="78.686597"
     inkscape:document-units="mm"
     inkscape:current-layer="layer1"
     showgrid="false"
     inkscape:window-width="1920"
     inkscape:window-height="1027"
     inkscape:window-x="-8"
     inkscape:window-y="-8"
     inkscape:window-maximized="1" />
  <metadata
     id="metadata5">
    <rdf:RDF>
      <cc:Work
         rdf:about="">
        <dc:format>image/svg+xml</dc:format>
        <dc:type
           rdf:resource="http://purl.org/dc/dcmitype/StillImage" />
        <dc:title></dc:title>
      </cc:Work>
    </rdf:RDF>
  </metadata>
  <g
     inkscape:label="Layer 1"
     inkscape:groupmode="layer"
     id="layer1"
     transform="translate(0,-242)">
    <path
       style="color:#000000;font-style:normal;font-variant:normal;font-weight:normal;font-stretch:normal;font-size:medium;line-height:normal;font-family:sans-serif;font-variant-ligatures:normal;font-variant-position:normal;font-variant-caps:normal;font-variant-numeric:normal;font-variant-alternates:normal;font-feature-settings:normal;text-indent:0;text-align:start;text-decoration:none;text-decoration-line:none;text-decoration-style:solid;text-decoration-color:#000000;letter-spacing:normal;word-spacing:normal;text-transform:none;writing-mode:lr-tb;direction:ltr;text-orientation:mixed;dominant-baseline:auto;baseline-shift:baseline;text-anchor:start;white-space:normal;shape-padding:0;clip-rule:nonzero;display:inline;overflow:visible;visibility:visible;opacity:1;isolation:auto;mix-blend-mode:normal;color-interpolation:sRGB;color-interpolation-filters:linearRGB;solid-color:#000000;solid-opacity:1;vector-effect:none;fill:#000000;fill-opacity:1;fill-rule:nonzero;stroke:none;stroke-width:1.20000041;stroke-linecap:round;stroke-linejoin:round;stroke-miterlimit:4;stroke-dasharray:none;stroke-dashoffset:0;stroke-opacity:1;paint-order:stroke fill markers;color-rendering:auto;image-rendering:auto;shape-rendering:auto;text-rendering:auto;enable-background:accumulate"
       d="m 45.969834,244.82459 c -0.38521,-1.7e-4 -0.80386,0.0262 -1.24282,0.0925 -1.71469,0.25902 -3.76202,1.16752 -5.11441,3.4215 -1.71721,-0.88402 -3.91121,-1.36687 -5.71954,-1.50947 -1.19927,-0.0946 -2.15265,-0.0979 -2.86133,0.24029 -0.17717,0.0846 -0.35904,0.20228 -0.49196,0.416 -0.13292,0.21372 -0.16055,0.52573 -0.0842,0.75602 0.15265,0.46059 0.48804,0.70077 0.96118,0.99788 0.99649,0.62574 1.6387,1.18384 2.0619,1.65519 l -0.59997,0.26665 c -7.8041,2.78324 -13.99063,6.1308 -18.11207,12.30261 -0.57883,0.86678 -0.95835,1.85803 -1.18856,2.92075 -0.2878,0.22366 -0.94714,0.70076 -1.73943,1.03818 -0.53294,0.22697 -1.11221,0.38114 -1.64434,0.37156 -0.5321301,-0.01 -1.0114201,-0.15877 -1.4707101,-0.58601 -0.29223,-0.27184 -0.34314,-0.59036 -0.46096,-0.89659 1.41959,-0.0112 2.6183801,-0.53589 3.2401201,-1.37304 0.34914,-0.47014 0.54424,-1.04283 0.41806,-1.61541 -0.12617,-0.57258 -0.59641,-1.05259 -1.24437,-1.29294 -0.6968801,-0.25853 -1.4343601,-0.12835 -2.0293301,0.2129 -0.59498,0.34125 -1.07899,0.88119 -1.41026,1.52136 -0.15324,0.29615 -0.11652,0.66821 -0.1912,1.00614 -0.12907,-0.0888 -0.33447,-0.0994 -0.44131,-0.21704 -0.31104,-0.34242 -0.53459,-0.81299 -0.678,-1.3007 -0.28682,-0.97543 -0.2496,-1.9513 -0.2496,-1.9513 0.0196,-0.33715 -0.24277,-0.62405 -0.58032,-0.63459 -0.33099,-0.01 -0.60712,0.2509 -0.61702,0.58188 0,0 -0.0582,1.13535 0.29662,2.34197 0.1774,0.60332 0.45852,1.23993 0.93948,1.76941 0.25967,0.28587 0.73111,0.3686 1.11156,0.55087 0.0773,0.774 0.4009,1.54382 1.08004,2.17557 0.67807,0.63077 1.4946,0.89252 2.2654901,0.90641 0.77088,0.0139 1.50109,-0.1959 2.13682,-0.46664 0.38186,-0.16262 0.72775,-0.34967 1.03301,-0.53227 -0.13089,1.62063 0.0111,3.34341 0.29921,5.02244 0.38236,2.22802 1.03136,4.37684 1.71566,6.13657 0.007,0.024 0.0161,0.0474 0.0264,0.0703 0.15892,0.36067 0.0891,0.73143 -0.23461,1.26194 -0.32371,0.53051 -0.89802,1.13434 -1.54306,1.72858 -0.64504,0.59424 -1.35701,1.18324 -1.9668,1.74769 -0.60979,0.56446 -1.13193,1.0711 -1.37873,1.70946 -0.3548001,0.9177 -0.21018,1.82545 0.2775,2.45876 0.48769,0.63332 1.23789,1.00875 2.04897,1.19321 0.60784,0.13825 1.26938,0.175 1.91461,0.0904 -0.10897,0.16703 -0.20908,0.3384 -0.29197,0.51883 -0.18453,0.40168 -0.28175,0.871 -0.18345,1.34979 0.0983,0.47878 0.37574,0.93215 0.80667,1.36529 0.006,0.006 0.013,0.0119 0.0196,0.0176 0.96214,0.88106 2.21303,1.14292 3.45303,0.96479 1.23998,-0.17812 2.4993,-0.76119 3.69538,-1.56837 2.31766,-1.5641 4.40287,-3.96909 5.3821,-6.26319 2.99961,-0.52283 7.42455,-1.56404 11.62151,-3.01428 4.21924,-1.45795 8.1372,-3.28027 10.17819,-5.57227 0.2387,0.0492 1.27641,0.27018 2.87476,0.48833 1.33259,0.1819 2.85733,0.33909 4.19044,0.30128 -0.59791,3.20759 -0.21176,6.33263 0.9524,8.86871 1.25339,2.73046 3.43491,4.7921 6.24768,5.42189 4.85342,1.08668 8.47805,0.32323 11.04325,-1.64072 2.5652,-1.96396 4.031687,-5.05009 4.829676,-8.47235 0.80482,-3.45148 0.57508,-6.88496 -1.02112,-9.66609 -1.596206,-2.78113 -4.559296,-4.85026 -8.978776,-5.59551 -2.42446,-0.40884 -4.85568,0.1697 -6.96857,1.51205 -0.002,-0.0237 -0.002,-0.0471 -0.004,-0.0708 -0.0691,-0.64574 -0.40659,-1.28141 -0.99787,-1.74408 -0.59128,-0.46267 -1.41352,-0.76335 -2.48047,-0.8692 -1.811,-0.17962 -3.27484,-0.48477 -4.11293,-0.68058 0.82304,-0.69699 1.45518,-1.4415 1.88051,-2.21588 0.90777,-1.65275 0.78738,-3.50512 -0.44132,-4.90461 -0.63519,-0.72351 -1.45816,-1.14074 -2.37505,-1.32602 -0.29804,-0.0602 -0.73535,-0.10697 -0.73535,-0.10697 0,0 -0.0692,-0.33224 -0.12247,-0.50023 -1.25601,-3.94704 -4.07677,-5.75882 -6.65645,-6.50297 0.27782,-1.0141 0.81515,-1.68813 1.29915,-2.19624 0.26234,-0.27541 0.50425,-0.48867 0.70538,-0.73277 0.10056,-0.12205 0.20416,-0.25109 0.26149,-0.47646 0.0573,-0.22536 -0.0213,-0.56873 -0.18707,-0.74982 -0.006,-0.007 -0.0129,-0.0132 -0.0196,-0.0196 -0.13784,-0.13799 -0.21148,-0.15398 -0.2987,-0.19121 -0.0872,-0.0372 -0.17932,-0.0679 -0.2837,-0.0977 -0.20875,-0.0596 -0.46566,-0.1122 -0.77101,-0.15245 -0.30536,-0.0402 -0.65762,-0.067 -1.04283,-0.0672 z m 5.3e-4,1.20096 c 0.32984,-1.1e-4 0.62968,0.0223 0.88367,0.0558 0.0981,0.0129 0.14944,0.0291 0.23254,0.0444 -0.11694,0.11786 -0.18967,0.19162 -0.34778,0.3576 -0.54944,0.57681 -1.25258,1.45947 -1.59835,2.75177 -2.25515,-0.4179 -4.02581,-0.1473 -4.27468,-0.10697 -0.0734,-0.0577 -0.15181,-0.11252 -0.22892,-0.16795 1.15391,-1.9324 2.80766,-2.63473 4.27002,-2.85564 0.37393,-0.0565 0.73366,-0.0789 1.0635,-0.0791 z m -12.79767,1.97404 c 0.18933,-2.6e-4 0.39793,0.007 0.62685,0.0248 2.21334,0.17454 5.28182,1.01062 6.57995,2.16008 0.13712,0.12082 0.32184,0.17256 0.50178,0.14056 0,0 2.15466,-0.37052 4.6054,0.20722 2.45074,0.57774 5.11825,2.02641 6.33243,5.84202 0.0184,0.0576 0.0358,0.15289 0.0358,0.15289 0,0 -0.63062,0.0889 -0.9696,0.15768 -2.0165,0.40926 -4.11814,1.4374 -5.83944,2.68356 -1.71453,1.24121 -2.81012,2.47233 -3.34605,3.68711 -0.53593,1.21479 -0.46097,2.44876 0.17002,3.41427 0.30758,0.47063 0.72967,0.91979 1.27485,1.28002 -0.0299,-0.004 -0.0595,-0.006 -0.0894,-0.009 l -4.20852,-1.54099 c -0.47947,-0.29324 -0.95693,-0.61625 -1.40663,-0.95653 -1.298,-0.98217 -2.38449,-2.13398 -2.71301,-2.82205 -0.20708,-0.43374 -0.36599,-1.42204 -0.40618,-2.58021 -0.0402,-1.15816 0.0114,-2.50515 0.0997,-3.77909 0.0693,-0.99956 0.15908,-1.90595 0.24443,-2.69648 0.29742,0.0716 0.60108,-0.0921 0.70486,-0.37982 0,0 0.0856,-0.2325 0.0935,-0.50798 0.008,-0.27548 -0.0411,-0.64832 -0.22273,-1.08004 -0.36338,-0.86344 -1.23411,-1.95025 -3.18534,-3.17552 -0.0966,-0.0607 -0.0554,-0.0392 -0.11938,-0.092 0.27153,-0.0595 0.66866,-0.12931 1.23662,-0.13022 z m 0.4434,4.17597 c -0.077,0.57919 -0.1984,1.44895 -0.3173,2.85564 l -3.06494,0.72761 c 0.25302,-1.34157 0.52536,-2.22222 0.56741,-2.35955 l 2.51458,-1.11828 c 0.0991,-0.0353 0.20053,-0.0703 0.30025,-0.10542 z m 13.44929,1.20303 c -0.0576,-0.003 -0.11582,-0.001 -0.17363,0.009 -0.23125,0.0418 -0.35059,0.19194 -0.39791,0.31471 -0.0473,0.12277 -0.0499,0.23899 -0.0377,0.35915 0.0243,0.24032 0.1166,0.50231 0.262,0.78135 0.1454,0.27904 0.31737,0.52425 0.52607,0.73122 0.10431,0.10349 0.217,0.19876 0.3731,0.28474 0.15609,0.086 0.39765,0.1705 0.6289,0.12867 0.23126,-0.0418 0.35007,-0.19142 0.39739,-0.31419 0.0473,-0.12277 0.0503,-0.23951 0.0382,-0.35967 -0.0243,-0.24032 -0.11556,-0.50024 -0.26096,-0.77928 -0.14539,-0.27904 -0.31839,-0.5258 -0.5271,-0.73277 -0.10431,-0.10349 -0.21752,-0.19876 -0.37362,-0.28474 -0.11707,-0.0645 -0.282,-0.12827 -0.45476,-0.13849 z m 9.45783,23.40477 c -1.24817,0.0626 -2.89417,-0.08 -4.30362,-0.27233 -1.72373,-0.23528 -3.098,-0.52555 -3.098,-0.52555 -0.2212,-0.0468 -0.44994,0.0347 -0.5917,0.21084 -1.61825,1.99954 -5.61192,3.96628 -9.91566,5.45341 -4.30374,1.48713 -8.92328,2.55489 -11.84011,3.03857 -0.33094,0.0451 -0.56137,0.35172 -0.51263,0.68213 -0.86494,1.98281 -2.83194,4.28027 -4.93097,5.69681 -1.091,0.73627 -2.21511,1.23403 -3.19722,1.37511 -0.97709,0.14036 -1.78112,-0.0414 -2.45876,-0.65629 -0.30749,-0.31326 -0.43413,-0.55767 -0.47284,-0.74621 -0.0394,-0.19189 -0.0134,-0.36546 0.0977,-0.60719 0.22208,-0.48347 0.83224,-1.13047 1.47691,-1.91617 0.16335,-0.19908 0.32817,-0.40931 0.48834,-0.63251 0.0138,-0.0177 0.0265,-0.0362 0.0382,-0.0553 0.4565,-0.6457 0.86591,-1.39783 1.05523,-2.30218 0.26071,-1.24532 0.0779,-2.74012 -0.85162,-4.50206 -0.92742,-1.75795 -2.12134,-4.94687 -2.68149,-8.21086 -0.56015,-3.264 -0.45984,-6.58828 0.93947,-8.68371 3.24299,-4.85632 7.83398,-7.89275 13.67152,-10.35027 -0.22135,0.88282 -0.52551,2.2791 -0.70073,3.89899 -0.2966,2.74185 -0.25263,6.12605 1.33377,8.69145 1.0446,1.68924 2.97071,3.09146 5.31338,4.13412 -0.47021,0.54106 -0.94305,0.97277 -1.41077,1.30328 -1.31018,0.92582 -2.56352,1.10623 -3.75224,0.80873 -1.2763,-0.31941 -2.16353,-0.79414 -2.72851,-1.17977 -0.56499,-0.38563 -0.77515,-0.64802 -0.77515,-0.64802 -0.34493,-0.41705 -1.0222,-0.20031 -1.06091,0.33951 l -0.44907,6.07612 c -0.0135,0.18844 0.0625,0.37224 0.20515,0.49609 0,0 0.92558,0.80525 2.33216,1.29501 1.40658,0.48977 3.3787,0.6675 5.34748,-0.5643 3.61389,-2.2611 5.5475,-3.86209 7.85327,-6.26319 3.71979,0.64821 7.62959,0.45737 10.58643,-1.06712 0.20414,-0.10525 0.38534,-0.23665 0.54829,-0.38757 0.18456,0.0166 1.42587,0.13472 2.9161,0.44442 1.22101,0.25375 2.57043,0.66523 3.49022,1.16168 l 0.55304,0.37423 c 0.64828,0.72786 0.99689,1.75859 0.61537,2.44266 -0.34406,0.61689 -1.03999,1.16875 -1.82263,1.43712 z m -13.8896,-21.66276 c -0.10339,0.007 -0.21218,0.0366 -0.31367,0.0997 -0.20298,0.12621 -0.29339,0.33668 -0.31988,0.50023 -0.0265,0.16353 -0.009,0.3083 0.0222,0.45526 0.0625,0.29395 0.19692,0.59836 0.39223,0.90382 0.19531,0.30548 0.41584,0.55614 0.65784,0.73846 0.121,0.0912 0.24563,0.16908 0.40669,0.21601 0.16105,0.0469 0.39389,0.059 0.59687,-0.0672 0.20298,-0.12622 0.29235,-0.33875 0.31884,-0.5023 0.0265,-0.16354 0.0106,-0.30932 -0.0207,-0.4563 -0.0625,-0.29394 -0.19693,-0.59783 -0.39224,-0.9033 -0.19531,-0.30547 -0.41584,-0.55665 -0.65784,-0.73898 -0.121,-0.0912 -0.24771,-0.16805 -0.40876,-0.21497 -0.0805,-0.0235 -0.17824,-0.0378 -0.28164,-0.0305 z m -9.41648,0.95705 c -0.0804,1.18692 -0.12635,2.4285 -0.0987,3.56154 l -3.29954,1.26245 c -0.0482,-1.05318 0.003,-2.11161 0.10956,-3.09386 0.0371,-0.34269 0.08,-0.66725 0.12557,-0.97927 z m 19.48667,1.62109 c 0.29502,0.005 0.57643,0.0323 0.84181,0.0837 0.70769,0.13721 1.30363,0.44682 1.74976,0.95497 0.93395,1.06378 1.01476,2.21623 0.29146,3.53312 -0.7233,1.3169 -2.34886,2.73109 -4.8519,3.85765 -2.51531,1.1321 -4.29287,1.35778 -5.50768,1.16013 -1.21481,-0.19765 -1.90523,-0.78919 -2.35334,-1.47484 -0.41581,-0.63624 -0.48588,-1.34522 -0.0765,-2.27325 0.40942,-0.92803 1.35009,-2.03866 2.95331,-3.19929 1.59641,-1.15574 3.58547,-2.11772 5.3728,-2.48046 0.55853,-0.11336 1.08855,-0.16936 1.58026,-0.16175 z m -0.22634,1.98592 c -0.74391,0 -1.29915,0.64802 -1.29915,1.36116 0,0.71314 0.55524,1.36322 1.29915,1.36322 0.74392,0 1.29863,-0.65008 1.29863,-1.36322 0,-0.71314 -0.55471,-1.36116 -1.29863,-1.36116 z m -19.312,1.00666 c 0.0645,0.88048 0.19385,1.6469 0.47957,2.24534 0.21899,0.45867 0.56321,0.92895 0.98702,1.39888 l -3.05306,2.06654 c -0.18469,-0.21849 -0.35232,-0.4397 -0.49041,-0.66301 -0.66841,-1.0809 -1.02928,-2.41098 -1.18752,-3.79821 z m 14.59136,0.79427 c -0.74391,0 -1.29915,0.64801 -1.29915,1.36115 0,0.71314 0.55524,1.36323 1.29915,1.36323 0.7439,0 1.29862,-0.65009 1.29862,-1.36323 0,-0.71314 -0.55472,-1.36115 -1.29862,-1.36115 z m -12.41061,3.57342 c 0.41712,0.38715 0.87869,0.76968 1.36943,1.14102 0.30051,0.22739 0.61163,0.44686 0.92707,0.65784 -0.47966,1.03339 -0.97905,1.91895 -1.48931,2.65203 -1.54323,-0.67002 -2.8819,-1.48844 -3.86592,-2.38021 z m 18.62211,1.05213 c 0.62472,0.16038 2.44995,0.59603 4.78214,0.82734 0.90424,0.0897 1.49938,0.33704 1.85983,0.61909 0.36044,0.28205 0.50844,0.58904 0.54467,0.92759 0.0348,0.32492 -0.0632,0.69546 -0.26768,1.04128 -0.32585,0.43808 -0.53592,0.78351 -1.02113,0.94723 -0.23601,0.1181 -0.85008,0.18197 -1.36529,0.15813 -0.51521,-0.0238 -0.92811,-0.0977 -0.92811,-0.0977 -0.066,-0.0115 -0.13338,-0.0118 -0.19947,-0.001 -0.70711,-0.22884 -1.44116,-0.40581 -2.13423,-0.54983 -1.2638,-0.26264 -1.85556,-0.30265 -2.34198,-0.35348 0.14145,-0.32972 0.22206,-0.48416 0.43356,-1.07228 0.28459,-0.79136 0.58109,-1.65538 0.63769,-2.44636 z m -1.52445,0.77877 c -0.0676,0.34405 -0.0519,0.40828 -0.18139,0.85318 -0.30012,1.03042 -0.85992,2.07421 -1.28105,2.29133 -0.85891,0.44283 -1.83953,0.7598 -2.89182,0.96841 0.0307,-0.33951 0.069,-0.74345 0.10852,-1.14618 0.0624,-0.63532 0.0966,-0.96573 0.12454,-1.2392 1.94926,-0.50748 3.40163,-1.30534 4.1212,-1.72754 z m 15.29622,1.09916 c 0.46066,-0.003 0.9223,0.0341 1.38183,0.11162 4.15171,0.7001 6.72815,2.55576 8.13645,5.00951 1.408307,2.45375 1.647797,5.56481 0.894518,8.79533 -0.760098,3.25972 -2.135838,6.06507 -4.392488,7.79281 -2.25666,1.72773 -5.43214,2.4574 -10.049,1.42368 -2.39903,-0.53715 -4.29196,-2.29014 -5.42189,-4.75165 -1.08783,-2.3698 -1.43945,-5.38408 -0.79479,-8.477 1.36239,-0.21884 2.57788,-1.04541 3.20704,-2.17351 0.61038,-1.09439 0.5483,-2.55923 -0.55707,-3.67213 0.18463,-0.23575 0.37544,-0.46241 0.57257,-0.67954 0.46239,-0.28742 0.84924,-0.66207 1.13172,-1.08934 1.74456,-1.46115 3.80664,-2.27808 5.89111,-2.28978 z m -20.44423,0.85317 c -0.0321,0.31777 -0.0458,0.44659 -0.092,0.91674 -0.0422,0.42973 -0.0855,0.8703 -0.11731,1.22629 -0.007,0.0732 -0.0103,0.12058 -0.016,0.18345 -1.65765,0.2104 -3.45122,0.172 -5.22655,-0.077 0.61869,-0.81307 1.1792,-1.66072 1.45934,-2.09496 1.45137,0.16084 2.79438,0.0673 3.99252,-0.15452 z m -10.77297,2.13166 c 0.95721,0.35981 1.96653,0.6634 3.00135,0.90588 0.006,0.001 0.0114,0.002 0.017,0.004 -1.06857,1.08064 -2.08414,1.9978 -3.27575,2.91714 l -1.70119,-1.94614 c 0.0328,-0.0224 0.0655,-0.0431 0.0982,-0.0661 0.64122,-0.45311 1.26272,-1.05901 1.86035,-1.81436 z m -9.75652,1.4118 c 0.0304,0.0215 0.0168,0.0196 0.0486,0.0413 0.67127,0.45817 1.69251,0.99777 3.11351,1.3534 0.21386,0.0535 0.43103,0.0924 0.6506,0.11938 l 0.64026,4.08347 c -1.15137,0.3492 -2.20821,0.18332 -3.08198,-0.12093 -1.0369,-0.36104 -1.55046,-0.81203 -1.70687,-0.93947 z m 6.91638,0.97875 1.77922,2.03708 c -0.86911,0.63061 -1.83781,1.28111 -3.0081,2.01332 -0.0952,0.0595 -0.18989,0.11473 -0.28422,0.16639 l -0.5736,-3.65455 c 0.69144,-0.0474 1.39417,-0.22997 2.0867,-0.56224 z m -17.49093,7.71115 c 0.0846,0.17326 0.16989,0.35147 0.25218,0.50747 0.83236,1.57777 0.9408,2.74072 0.74052,3.69745 -0.1504,0.71841 -0.48988,1.34036 -0.90382,1.91564 -0.65413,0.88899 -2.20679,1.23484 -3.42821,0.95705 -0.61387,-0.13961 -1.11008,-0.42611 -1.36375,-0.75551 -0.25364,-0.3294 -0.34449,-0.68599 -0.10903,-1.29501 0.089,-0.23029 0.50225,-0.73031 1.07435,-1.25987 0.57209,-0.52957 1.28731,-1.12207 1.96474,-1.74615 0.67743,-0.62408 1.32002,-1.27538 1.7539,-1.98644 0.007,-0.0112 0.0123,-0.0233 0.0191,-0.0346 z"
       id="path1308-6"
       inkscape:connector-curvature="0"
       sodipodi:nodetypes="csccccccccccccccccccccccccccccccccccccccccccccccsccccccscscccccccccccccccccccccccccccccccscccccsccccscccccccccccccccccccccccccccccccccccccccccsccsccccsccccscccccccccccccccccscccccccccccccccccccccccccccscccscccccsscssccscsccsscsscccccccccccccccccccccccccccsccscccccccccccccccccccccccccccccsccccccccccccccccsccccc" />
  </g>
</svg>
