<?xml version="1.0" encoding="UTF-8" standalone="no"?>
<!-- Created with Inkscape (http://www.inkscape.org/) -->

<svg
   width="60mm"
   height="50mm"
   viewBox="0 0 60 50"
   version="1.1"
   id="svg4804"
   inkscape:version="0.92.3 (2405546, 2018-03-11)"
   sodipodi:docname="pig-walking.svg"
   xmlns:inkscape="http://www.inkscape.org/namespaces/inkscape"
   xmlns:sodipodi="http://sodipodi.sourceforge.net/DTD/sodipodi-0.dtd"
   xmlns="http://www.w3.org/2000/svg"
   xmlns:svg="http://www.w3.org/2000/svg"
   xmlns:rdf="http://www.w3.org/1999/02/22-rdf-syntax-ns#"
   xmlns:cc="http://creativecommons.org/ns#"
   xmlns:dc="http://purl.org/dc/elements/1.1/">
  <defs
     id="defs4798" />
  <sodipodi:namedview
     id="base"
     pagecolor="#ffffff"
     bordercolor="#666666"
     borderopacity="1.0"
     inkscape:pageopacity="0.0"
     inkscape:pageshadow="2"
     inkscape:zoom="1.979899"
     inkscape:cx="4.0406102"
     inkscape:cy="66.164991"
     inkscape:document-units="mm"
     inkscape:current-layer="layer1"
     showgrid="false"
     inkscape:window-width="800"
     inkscape:window-height="148"
     inkscape:window-x="0"
     inkscape:window-y="0"
     inkscape:window-maximized="0"
     inkscape:showpageshadow="2"
     inkscape:pagecheckerboard="0"
     inkscape:deskcolor="#d1d1d1" />
  <metadata
     id="metadata4801">
    <rdf:RDF>
      <cc:Work
         rdf:about="">
        <dc:format>image/svg+xml</dc:format>
        <dc:type
           rdf:resource="http://purl.org/dc/dcmitype/StillImage" />
        <dc:title />
      </cc:Work>
    </rdf:RDF>
  </metadata>
  <path
     id="path92"
     style="color:#000000;font-style:normal;font-variant:normal;font-weight:normal;font-stretch:normal;font-size:medium;line-height:normal;font-family:sans-serif;font-variant-ligatures:normal;font-variant-position:normal;font-variant-caps:normal;font-variant-numeric:normal;font-variant-alternates:normal;font-feature-settings:normal;text-indent:0;text-align:start;text-decoration:none;text-decoration-line:none;text-decoration-style:solid;text-decoration-color:#000000;letter-spacing:normal;word-spacing:normal;text-transform:none;writing-mode:lr-tb;direction:ltr;text-orientation:mixed;dominant-baseline:auto;baseline-shift:baseline;text-anchor:start;white-space:normal;shape-padding:0;clip-rule:nonzero;display:inline;overflow:visible;visibility:visible;opacity:1;isolation:auto;mix-blend-mode:normal;color-interpolation:sRGB;color-interpolation-filters:linearRGB;solid-color:#000000;solid-opacity:1;vector-effect:none;fill:#000000;fill-opacity:1;fill-rule:nonzero;stroke:none;stroke-width:4.53543329;stroke-linecap:round;stroke-linejoin:round;stroke-miterlimit:4;stroke-dasharray:none;stroke-dashoffset:0;stroke-opacity:1;color-rendering:auto;image-rendering:auto;shape-rendering:auto;text-rendering:auto;enable-background:accumulate"
     d="M 40.230519 23.521514 C 36.617987 23.537604 33.480709 24.137397 31.173867 25.416048 C 30.40492 25.842151 29.699093 26.359349 29.144568 27.105503 C 28.590043 27.851618 28.229713 28.902312 28.324254 29.933631 C 28.51334 31.996306 29.9812 33.377771 31.957072 34.599653 C 37.646235 38.117785 39.075709 41.693998 39.404347 44.431697 C 39.714305 47.01364 38.988506 48.522123 38.902393 48.712952 C 26.961433 56.635249 18.806047 66.167081 14.875019 76.830175 C 10.840883 87.772992 11.152887 99.760088 15.576191 111.90248 C 20.299937 124.86965 30.635132 134.88862 51.38483 142.01971 C 50.577731 143.64362 48.883647 146.73271 47.613341 152.15644 C 46.831948 155.49274 46.391094 159.08492 47.052794 162.46895 C 47.71449 165.85295 49.720035 169.09648 53.363348 170.77365 C 57.280361 172.57682 61.672547 171.47243 65.77352 169.36349 C 69.874488 167.25452 73.925421 164.02863 77.584082 160.66036 C 78.967929 159.38635 80.232239 158.14094 81.418071 156.93574 C 82.868869 158.76181 85.144664 161.42835 88.140736 164.10763 C 93.189859 168.62291 100.17111 173.17304 107.76771 171.64475 C 111.52993 170.88783 114.12723 168.69757 115.23061 166.01974 C 116.334 163.34191 116.14486 160.45243 115.59976 157.82442 C 115.13865 155.60145 114.38318 153.52102 113.66225 151.82832 C 120.30995 152.62643 127.0699 153.1569 133.37907 153.36543 C 132.30817 154.78684 131.00772 156.76674 130.10563 159.00606 C 129.21046 161.22823 128.64669 163.83057 129.45719 166.44748 C 130.2677 169.06437 132.54139 171.33642 136.11541 172.67014 C 142.37976 175.00782 149.13493 171.85432 154.31855 168.59592 C 158.92562 165.69993 162.295 162.57857 163.02364 161.88692 C 164.81262 163.39719 166.77759 164.97201 168.88303 166.52755 C 173.45631 169.90638 178.42923 173.00289 183.29906 174.65647 C 188.16887 176.31005 193.31238 176.49986 197.13306 173.29709 C 200.63614 170.36055 202.10862 166.49416 202.10182 162.74044 C 202.09482 158.98673 200.80917 155.32507 199.21509 151.97089 C 197.62103 148.61672 195.67921 145.55277 194.18774 143.11932 C 193.44202 141.90258 192.80554 140.84051 192.40259 140.049 C 192.2372 139.72396 192.27866 139.8321 192.20923 139.62127 C 193.74334 138.34391 198.24626 134.36065 202.13893 126.12711 C 206.74475 116.38513 209.5191 101.6148 202.70729 82.043072 C 201.43203 78.379001 199.83924 75.047521 197.97681 72.009856 C 199.17156 71.763474 200.72416 71.366835 202.33815 70.718839 C 204.82315 69.721083 207.22246 67.627537 208.75222 64.836019 C 210.91056 64.330357 213.03834 63.184979 214.80496 61.248124 C 216.59395 59.286664 217.41416 57.00476 217.46316 54.898507 C 217.51216 52.792253 216.87678 50.901075 216.0823 49.334047 C 214.49335 46.199953 212.12722 44.113337 212.12722 44.113337 C 211.67671 43.697695 211.07715 43.482104 210.46511 43.51568 C 208.43131 43.622734 207.55841 46.148297 209.09206 47.488341 C 209.09206 47.488341 210.90885 49.158955 212.03738 51.38483 C 212.60164 52.497786 212.95561 53.692126 212.92996 54.794991 C 212.90426 55.897818 212.5829 56.955236 211.45534 58.19148 C 210.95881 58.735882 210.36455 58.817505 209.81667 59.16609 C 209.3718 56.07202 208.04729 53.427637 205.7776 52.234441 C 204.30609 51.460886 202.55313 51.201065 200.9065 51.753971 C 199.25987 52.306878 197.87248 53.697028 197.14869 55.527414 C 196.35352 57.538196 196.75313 59.76086 197.85767 61.336015 C 198.96222 62.911131 200.62717 63.980276 202.51588 64.591878 C 202.90928 64.719248 203.39826 64.55687 203.81471 64.64266 C 202.93561 65.388058 201.86559 66.022392 200.64674 66.511803 C 197.99837 67.575133 195.36939 67.847742 195.36939 67.847742 C 195.29339 67.854942 195.21773 67.866075 195.14282 67.880945 C 187.87487 58.399166 177.56274 52.277935 165.66427 48.359436 C 149.39039 42.999989 130.05278 41.518208 110.49819 40.517629 C 111.1436 38.864894 112.31007 36.957623 114.57436 34.334028 C 115.71601 33.011233 116.42453 31.100639 115.66616 29.431678 C 114.90778 27.762715 113.39358 27.099151 111.87319 26.701206 C 108.8324 25.905313 104.75012 26.124447 100.11341 27.209019 C 93.025696 28.866904 84.714664 32.738363 79.078225 39.589894 C 78.960345 39.568164 78.840664 39.557704 78.720802 39.558644 L 67.779382 39.652394 C 66.132926 35.128806 63.18214 31.636278 59.681716 29.166052 C 54.903838 25.794301 49.173873 24.179462 43.988337 23.695342 C 42.691953 23.574313 41.434696 23.516152 40.230519 23.521514 z "
     transform="scale(0.264583)" />
</svg>
